<?xml version="1.0" encoding="UTF-8"?>
<svg id="Layer_1" data-name="Layer 1" xmlns="http://www.w3.org/2000/svg" viewBox="0 0 414.42 470.61">
  <defs>
    <style>
      .cls-1 {
        fill: #1769ae;
      }

      .cls-1, .cls-2 {
        stroke-width: 0px;
      }

      .cls-2 {
        fill: #e02136;
      }
    </style>
  </defs>
  <path class="cls-2" d="m414.26,333.5c0,21.5-.05,43,.05,64.49,0,3.03-.85,4.42-3.78,5.43-66.57,22.14-133.14,44.33-199.71,66.62-2.45.8-4.58.74-6.97-.05-47.68-15.96-95.41-31.87-143.09-47.78-18.84-6.28-37.73-12.56-56.62-18.73-2.5-.8-3.67-1.86-3.67-4.74.11-43.16.11-86.26.11-129.41q0-5.16,5.06-3.46c65.4,21.82,130.85,43.58,196.19,65.5,3.99,1.33,7.56,1.28,11.55-.05,65.5-21.98,131.06-43.74,196.62-65.72,3.41-1.12,4.31-.64,4.31,3.03-.16,21.66-.05,43.26-.05,64.92h0v-.05Z"/>
  <path class="cls-1" d="m.69,165.13c0-21.66.05-43.26-.05-64.92,0-3.41.59-3.99,3.99-2.82,47.31,15.86,94.67,31.56,141.97,47.31,19.37,6.44,38.74,12.82,58.11,19.42,2.18.74,3.99.74,6.12,0,39.75-13.3,79.5-26.55,119.25-39.8,26.82-8.94,53.69-17.88,80.51-26.93,2.82-.96,3.62-.59,3.62,2.55-.11,43.53-.11,87.11,0,130.64,0,2.71-1.12,3.62-3.41,4.42-37.25,12.35-74.44,24.8-111.64,37.2-29.27,9.74-58.48,19.48-87.69,29.32-2.71.9-5.06.9-7.72,0-66.57-22.24-133.14-44.43-199.76-66.57-2.77-.9-3.25-2.34-3.25-4.95.11-21.66,0-43.26.05-64.92l-.11.05Z"/>
  <path class="cls-1" d="m85.57,28.96c5.11-5.27,10.32-7.66,16.5-7.88,8.62-.32,14.58,3.62,17.56,11.71,1.54,4.2,2.08,8.57,2.08,12.98.05,10.43,0,20.86.11,31.24,0,2.71-.64,3.88-3.57,3.72-3.57-.21-7.24-.16-10.8,0-2.61.11-3.51-.69-3.46-3.41.16-8.94.05-17.88,0-26.87,0-2.55,0-5.06-.74-7.56-1.22-4.31-3.83-6.55-7.93-6.65-4.26-.16-7.45,2.02-9.05,5.96-.74,1.92-.8,3.88-.8,5.91,0,9.47-.16,19,.11,28.47.11,3.46-1.06,4.42-4.31,4.15-3.19-.27-6.44-.27-9.63,0-3.03.21-3.83-.8-3.83-3.78.16-17.88.05-35.81.05-53.69v-8.41c0-7.77,0-7.88,7.5-10.22,3.25-.96,7.08-4.2,9.53-2.29,2.08,1.6.48,6.28.53,9.58.11,5.32,0,10.59,0,17.03h.16Z"/>
  <path class="cls-1" d="m0,42.05C.16,12.09,28.89-7.7,56.88,2.89c2.23.85,3.19,1.81,2.5,4.42-.9,3.35-1.38,6.81-1.81,10.22-.32,2.34-1.17,2.87-3.41,1.97-4.95-2.02-10.16-2.34-15.38-1.44-8.99,1.54-14.9,6.76-17.4,15.59-1.38,4.84-1.49,9.74-.53,14.69,2.77,14.21,16.02,21.39,31.24,16.92,3.37-.99,5.36.25,5.96,3.72.21,1.17.43,2.34.64,3.57,1.54,7.93,1.54,7.98-6.28,9.58-8.62,1.76-17.29,1.65-25.75-1.01C9.9,75.84-.05,61.15.05,42.05h-.05Z"/>
  <path class="cls-1" d="m355.35,50.83c.11,24.37-21.18,38.47-43.26,28.68-9.53-4.26-14.26-12.13-15.96-21.98-1.01-5.96-.75-11.97,1.01-17.83,4.31-14.37,16.87-22.03,33.04-20.01,14.42,1.76,24.32,12.45,25.12,27.14.05,1.33,0,2.66,0,3.99h.05Zm-18.25.21c.11-4.04-.21-8.04-2.08-11.71-1.97-3.94-5.11-6.17-9.58-6.07-4.26.05-7.45,2.13-9.15,6.01-3.25,7.45-3.3,15.06-.21,22.56,1.76,4.2,5,6.55,9.68,6.49s7.72-2.61,9.53-6.7c1.54-3.35,1.86-6.92,1.76-10.59h.05Z"/>
  <path class="cls-1" d="m167.62,57.48c-5.48,0-10.96.11-16.39,0-2.66-.05-2.93,1.01-2.13,3.14,1.92,5.11,6.12,7.18,11.12,8.04,6.33,1.06,12.5.11,18.41-2.39,2.29-.96,3.46-.96,3.62,1.86.11,1.44.48,2.87.8,4.31,1.28,6.23,2.77,6.23-5.37,8.67-8.04,2.45-16.28,2.87-24.53,1.22-15.06-3.03-23.89-15.33-23.25-32.25.8-20.7,17.4-33.42,37.62-28.73,8.3,1.92,13.84,7.18,16.97,15.01,2.29,5.8,2.87,11.87,2.55,18.09-.11,2.34-.96,3.25-3.35,3.19-5.32-.16-10.7,0-16.02,0l-.05-.16Zm-9.15-12.5h8.78c1.81,0,2.18-.69,1.97-2.45-.64-5.43-4.47-9.26-9.68-9.37-5.48-.11-10.22,4.15-10.96,9.68-.21,1.76.43,2.13,1.86,2.13h8.04Z"/>
  <path class="cls-1" d="m377.54,29.86c1.81-1.65,3.46-3.41,5.32-4.79,11.87-8.83,26.93-3.41,30.44,10.86,1.06,4.2,1.06,8.46,1.06,12.72,0,9.47-.11,18.94.05,28.42,0,2.82-.85,3.78-3.67,3.62-3.62-.21-7.24-.21-10.8,0-2.71.16-3.35-.9-3.35-3.46.11-8.94.05-17.88,0-26.82,0-1.86,0-3.78-.21-5.59-.85-5.8-4.15-8.83-9.15-8.51-4.9.27-8.83,4.26-8.94,9.58-.16,9.74,0,19.48-.11,29.21,0,6.33.75,5.64-5.53,5.53-3.94-.05-8.99,1.81-11.49-.9-2.23-2.45-.59-7.4-.64-11.28-.27-14.15.53-28.31-.69-42.41-.21-2.45.53-3.41,3.03-3.25,3.19.16,6.44.27,9.58,0s4.47.8,4.15,3.99c-.11,1.01-.16,2.13.8,3.14l.16-.05Z"/>
  <path class="cls-1" d="m218.92,62.75c1.76-6.65,3.51-13.14,5.21-19.69,1.49-5.69,3.03-11.33,4.36-17.08.53-2.34,1.6-3.35,4.1-3.25,4.26.16,8.57.11,12.82,0,2.5-.05,3.41.53,2.45,3.19-5.91,17.29-11.71,34.59-17.51,51.94-.64,1.92-1.49,2.82-3.67,2.77-5.48-.16-10.96-.16-16.39,0-1.97,0-2.82-.8-3.35-2.5-5.8-17.35-11.6-34.64-17.51-51.94-.85-2.5-.74-3.62,2.39-3.46,4.26.21,8.57.16,12.82,0,2.39-.11,3.46.64,4.04,3.14,2.77,11.39,5.8,22.72,8.78,34.11.21.85.16,1.86,1.54,2.71l-.11.05Z"/>
  <path class="cls-1" d="m270.48,31.73c1.76-.8,1.97-2.39,2.77-3.51,3.62-5.27,8.78-7.08,14.95-6.7,1.97.11,2.77.96,2.71,3.03-.11,3.46-.21,6.97,0,10.38.21,3.03-.64,3.83-3.78,3.62-7.98-.53-13.09,2.93-15.06,9.68-.59,2.02-.64,4.2-.69,6.33-.05,7.45-.11,14.95,0,22.4,0,2.66-.59,3.88-3.51,3.72-3.72-.21-7.45-.16-11.23,0-2.18.05-3.09-.64-3.09-2.93,0-17.45.32-34.96-.43-52.41-.11-1.97.64-2.61,2.55-2.55,3.62.11,7.24.16,10.8,0,2.66-.16,3.57.9,3.46,3.46-.05,1.76-.27,3.62.48,5.48h.05Z"/>
</svg>