<?xml version="1.0" encoding="UTF-8"?>
<svg id="Layer_1" data-name="Layer 1" xmlns="http://www.w3.org/2000/svg" viewBox="0 0 1070.81 89.39">
  <defs>
    <style>
      .cls-1 {
        stroke-width: 0px;
      }
    </style>
  </defs>
  <path class="cls-1" d="m438.97,24.73c10.47-7.42,20.29-6.67,27.14,1.76,3.88-4.33,8.64-6.69,14.57-6.7,9.91-.02,15.69,4.39,16.28,14.22.66,11.13.22,22.33.35,33.5.02,2.01-.9,2.23-2.59,2.36-8.96.65-8.96.7-8.96-8.41,0-7.66.1-15.32-.05-22.98-.13-6.56-2.7-9.14-8.5-9.03-5.45.1-8.86,3.73-8.89,9.63-.04,8.94-.12,17.88.08,26.81.07,3.13-.82,4.49-4,3.94-.16-.03-.32,0-.48,0q-7.11.06-7.11-6.87c0-7.98.14-15.96-.05-23.94-.17-7.22-3.52-10.22-10.08-9.51-4.71.51-7.4,3.42-7.42,8.23-.04,9.26-.2,18.52.08,27.77.11,3.71-1.08,4.91-4.57,4.34-.93-.15-1.93-.15-2.87,0-3.34.52-4.31-.78-4.26-4.15.19-13.56.23-27.13-.02-40.7-.07-3.79,1.25-4.94,4.64-4.28,2.59.51,6.87-2.16,6.71,4.01Z"/>
  <path class="cls-1" d="m797.24,49.12c0,1.6,0,3.19,0,4.79,0,8.4-1.68,11.07-9.64,14.18-6.19,2.42-12.72,3.3-19.3,2.36-11.84-1.69-19.61-8.56-22.29-20.08-2.56-11-2.65-22.2,1.85-32.89,4.15-9.86,13.95-15.23,25.73-14.53,12,.71,19.37,5.96,22.46,16,1.63,5.29,1.4,5.4-4.15,5.67-4.13.2-6.88-.12-8.31-5.12-1.38-4.85-6.22-6.51-11.14-6.69-5.14-.19-9.86,1.44-12.13,6.16-5.54,11.54-5.92,23.52.07,34.94,3.97,7.58,15.77,9.53,22.86,4.81,1.98-1.32,1.96-3.01,1.97-4.95.08-8.82.1-8.82-8.49-8.84-.16,0-.32-.03-.48,0-3.93.77-4.58-1.13-4.67-4.69-.09-3.87,1.12-4.91,4.84-4.71,5.74.31,11.51.2,17.25.03,2.7-.08,3.74.78,3.59,3.53-.18,3.34-.04,6.7-.04,10.06Z"/>
  <path class="cls-1" d="m235.71,37.87c.18-5.48.33-10.26,1.64-14.92,3.52-12.53,13.29-20.11,25.94-20.09,12.76.02,22.36,7.44,25.81,20.13,2.35,8.63,2.43,17.41.42,26.07-3.42,14.71-13.93,22.55-28.37,21.61-13.2-.86-23.1-10.76-24.82-24.89-.35-2.85-.45-5.73-.61-7.91Zm42.91-1.42c.15-4.88-.19-9.98-2.37-14.72-2.46-5.34-6.51-8.52-12.64-8.63-6.11-.11-10.62,2.65-12.91,8.11-4.32,10.28-4.29,20.83-.06,31.13,2.34,5.7,7.08,8.48,13.31,8.28,6.31-.2,10.33-3.67,12.64-9.33,1.91-4.68,2.13-9.61,2.04-14.84Z"/>
  <path class="cls-1" d="m894.93,66.22c-1.04,2.95-8.52,5.3-10.83,3.33-.96-.81-.59-2.08-.59-3.16-.02-20.9.02-41.8-.06-62.7-.01-2.63.68-3.92,3.49-3.57,1.1.14,2.25.16,3.35,0,3.72-.55,5.05.79,4.84,4.68-.34,6.19-.09,12.41-.09,19.12,3.07-1.59,5.52-3.36,8.52-3.88,10.01-1.73,18.16,2.91,21.38,12.56,2.48,7.43,2.61,15.11.75,22.67-3.7,15.1-17.28,19.85-30.76,10.96Zm.1-21.04c0,1.92,0,3.83,0,5.75.03,5.8,2.77,9.27,7.98,10.11,5.11.82,9.23-1.69,10.97-7.06,1.92-5.93,1.94-11.96-.13-17.86-1.84-5.26-5.81-7.44-11.26-6.56-5,.8-7.52,4.1-7.55,9.87,0,1.92,0,3.83,0,5.75Z"/>
  <path class="cls-1" d="m113.69,24.43c13.21-9.46,27.3-4.22,30.92,11.11,1.45,6.13,1.48,12.38.2,18.53-3.17,15.32-15.42,20.59-30.85,12.82,0,5.96-.23,11.61.08,17.23.21,3.67-1.02,4.95-4.57,4.44-1.41-.2-2.88-.12-4.31-.02-2.08.14-2.77-.75-2.76-2.8.05-20.74.06-41.48-.01-62.22,0-2.46,1.12-3.26,3.17-2.77,2.85.68,7.4-2.54,8.12,3.68Zm.27,20.74c0,2.23-.01,4.46,0,6.69.03,5.13,2.1,8.05,6.51,9.17,4.48,1.14,9.07-.44,11.07-4.53,3.73-7.6,3.56-15.4-.36-22.89-1.96-3.75-7.02-5.25-11.36-3.75-4.02,1.39-6.33,4.04-5.91,8.63.21,2.21.04,4.46.04,6.69Z"/>
  <path class="cls-1" d="m377.05,36.92c0-9.9.08-19.8-.05-29.69-.04-2.67.68-3.58,3.47-3.54,12.14.14,24.29.19,36.44,0,4.62-.07,2.98,3.08,3.16,5.25.19,2.32.72,4.77-3.3,4.63-7.98-.27-15.98.07-23.97-.15-3.2-.09-4.25.93-3.93,4.05.45,4.41-1.87,10.31.95,12.85,2.42,2.19,8.21.67,12.51.75,2.72.05,5.47.3,8.14-.06,4.47-.59,5.65,1.13,5.46,5.45-.15,3.27-.87,4.41-4.28,4.27-6.38-.27-12.78.01-19.17-.12-2.52-.05-3.81.42-3.64,3.36.25,4.3.24,8.63,0,12.92-.16,2.9,1.05,3.39,3.6,3.34,8.15-.14,16.31.17,24.45-.15,3.74-.14,3.88,1.75,3.53,4.32-.31,2.23,1.7,5.59-3.31,5.49-12.3-.25-24.61-.15-36.92-.02-2.57.03-3.21-.81-3.18-3.26.12-9.9.05-19.8.05-29.69Z"/>
  <path class="cls-1" d="m176.26,36.96c.03-6.74.42-13.42,3.47-19.61,4.61-9.34,12.31-14.08,22.56-14.4,9.63-.3,18.01,2.46,23.25,11.37.4.69.78,1.39,1.09,2.12,3.77,8.74,3.05,9.73-6.4,9.55-2.3-.04-3.29-.66-3.91-2.97-1.98-7.32-5.19-9.91-11.9-10.2-6.48-.28-11.84,2.74-13.91,8.86-3.41,10.1-3.36,20.45.01,30.55,1.99,5.97,7.31,9.01,13.48,8.72,6.83-.33,10.6-3,12.19-9.93,1.04-4.54,4.11-3.06,6.63-3.11,6.69-.15,6.86.17,4.88,6.49-3.04,9.73-10.76,15.44-21.94,16.23-12,.84-21.28-4.16-26.03-14.04-2.99-6.22-3.47-12.88-3.47-19.62Z"/>
  <path class="cls-1" d="m315.31,60.43c9.33,0,17.6.26,25.85-.1,4.61-.2,3.58,2.6,3.81,5.18.27,3.03-.24,4.51-3.96,4.42-11.65-.27-23.32-.03-34.98-.17-1.81-.02-4.83,1.48-5.33-1.16-.52-2.72-1.26-5.92,1.23-8.58,6.34-6.74,12.57-13.59,18.78-20.46,3.3-3.66,6.76-7.24,8.79-11.85,1.95-4.43,1.96-8.83-1.43-12.48-3-3.23-6.91-3.62-11.04-2.04-3.14,1.2-5.3,3.77-5.56,6.67-.38,4.21-2.29,4.74-5.85,4.63-7.05-.23-7.39-.83-5.28-7.73C305.38.22,329.78-.16,337.88,8.68c5.69,6.21,6.04,16.16.49,25.31-3.93,6.47-9.41,11.65-14.48,17.16-2.58,2.8-5.18,5.6-8.58,9.27Z"/>
  <path class="cls-1" d="m964.19,66.02c-5.79,4.54-11.95,5.81-18.7,3.82-6.11-1.8-10.27-6.78-10.65-12.7-.45-7.06,2.5-12.27,8.64-15.1,5.38-2.47,11.16-2.63,16.91-2.52,2.84.05,3.6-.89,3.25-3.58-.48-3.78-2.34-6.29-6.09-7-4.1-.78-7.6.21-9.76,4.19-.93,1.72-10.31,3.19-11.56,1.8-.7-.78-.29-1.82-.06-2.72,1.33-5.23,4.9-8.48,9.68-10.48,5.79-2.42,11.81-2.66,17.82-.96,7.27,2.05,11.26,7.12,11.47,14.62.19,6.7,0,13.41.12,20.11.06,3.02-.15,6.27.89,9,2.05,5.41-.5,5.86-4.68,5.29-2.81-.38-6.75,1.73-7.27-3.8Zm-.5-14.52c-1.23-.97,1.88-4.2-1.78-4.5-4.14-.34-8.37-.09-12.11,1.99-2.39,1.33-3.59,3.63-3.36,6.42.21,2.66,1.85,4.38,4.22,5.33,6.09,2.43,13.01-2.25,13.04-9.24Z"/>
  <path class="cls-1" d="m618.61,48.9c-4.32,0-8.64.11-12.95-.04-2.4-.08-3.01.49-2.39,2.98,2.36,9.48,13.69,12.98,21.29,5.84,4.3-4.04,5.21.26,7.32,1.73,3.34,2.33.24,3.93-1.09,5.13-7.5,6.76-16.32,7.76-25.49,4.54-8.66-3.04-13.21-9.72-14.04-18.78-.92-10.08.46-19.46,9.08-26.33,11.78-9.39,29.72-3.22,33.04,11.37,2.96,13.03,2.56,13.56-10.45,13.56-1.44,0-2.88,0-4.32,0Zm-5.62-8.61c2.54,0,5.07-.02,7.61,0,1.44.01,2.46-.15,2.03-2.09-.89-4.08-2.41-7.63-6.96-8.61-4.44-.96-8.13.14-10.53,4.37-1.03,1.82-2.5,4.01-1.7,5.65.8,1.62,3.44.49,5.27.65,1.42.13,2.85.03,4.28.02Z"/>
  <path class="cls-1" d="m1049.54,52.56c2.85-9.42,5.72-17.38,7.57-25.57,1.19-5.26,3.54-6.83,8.7-6.41,5.75.47,5.78.11,3.88,5.61-5.66,16.39-11.26,32.8-16.97,49.17-3.64,10.43-9.29,14.54-17.9,13.98-3.67-.24-4.03-2.05-3.83-4.95.17-2.5-.6-4.88,3.61-5.01,6.58-.21,10.67-7.08,8.47-13.34-4.86-13.8-9.7-27.61-14.69-41.36-1.12-3.09-.78-4.1,2.81-4.07,8.4.08,8.41-.09,10.92,7.93,2.37,7.58,4.71,15.17,7.45,24.02Z"/>
  <path class="cls-1" d="m93.4,45.13c-.15,18.38-12.75,28.99-29.37,24.73-10.51-2.69-17.17-13.01-16.4-25.5.64-10.52,4-19.83,14.91-23.26,17.21-5.41,31.23,5.32,30.87,24.03Zm-11.53.89c.05-5.72-.75-9.07-2.73-12.02-4.43-6.62-13.66-6.61-17.35.38-3.68,6.97-3.7,14.39-.18,21.55,1.85,3.76,5.15,5.46,9.39,5.34,4.1-.11,6.9-2.23,8.74-5.68,1.68-3.16,2.22-6.61,2.13-9.56Z"/>
  <path class="cls-1" d="m875.42,45.37c-.24,18.29-13.03,28.85-29.6,24.45-10.26-2.73-16.75-12.83-16.2-25.22.53-12.11,6.04-20.73,15.13-23.69,16.8-5.47,30.92,5.79,30.68,24.47Zm-11.54-.2c.16-3.9-.44-7.64-2.58-10.98-4.44-6.92-13.84-6.85-17.59.41-3.54,6.86-3.49,14.11-.18,21.13,1.79,3.78,5.03,5.59,9.27,5.55,4.3-.05,7.2-2.24,9.08-5.91,1.63-3.19,2.12-6.65,2-10.19Z"/>
  <path class="cls-1" d="m691.47,19.8c8.8-.01,15.55,1.85,19.54,8.97,1.15,2.05,2.79,4.81.32,6.84-2.11,1.73-9.73-.22-10.77-2.28-1.91-3.79-5.14-5.13-9.15-4.61-2.98.39-5.7,1.52-6.1,5.02-.4,3.5,2.22,4.57,4.89,5.49,4.67,1.61,9.61,2.25,14.17,4.29,5.32,2.38,8.53,6.19,8.59,12.1.06,5.62-2.64,9.89-7.67,12.3-8.63,4.14-17.26,3.94-25.66-.83-2.28-1.29-4.08-3.12-5.33-5.38-1.28-2.3-3.42-5.7-1.33-7.24,2.48-1.83,6.46-.68,9.78-.39.41.04.72,1.27,1.06,1.96,2.53,5.14,8.91,7.35,14.17,4.9,1.85-.86,3.25-2.19,3.43-4.27.2-2.34-1.16-4-3.15-4.93-1.86-.87-3.89-1.4-5.86-2.01-3.19-.99-6.51-1.68-9.58-2.96-5.17-2.14-8.91-5.61-9.04-11.74-.14-6.37,3.29-10.44,8.66-13.16,3.2-1.62,6.66-2.18,9.02-2.08Z"/>
  <path class="cls-1" d="m32.09,42.17c0,7.99-.12,15.97.06,23.95.07,2.85-.59,3.81-3.65,3.78-8.17-.08-8.17.09-8.17-8.28,0-14.37-.22-28.75.13-43.12.11-4.5-1.36-5.52-5.38-5.08-2.84.31-5.75.06-8.63.06-6.69,0-6.59,0-6.39-6.71.07-2.17.49-3.09,2.92-3.08,15.51.1,31.02.14,46.52,0,4.67-.04,2.84,3.2,3.08,5.32.27,2.4.56,4.82-3.39,4.54-4.61-.32-9.27.04-13.9-.12-2.56-.09-3.29.88-3.26,3.34.12,8.46.04,16.93.04,25.39Z"/>
  <path class="cls-1" d="m534.07,44.79c0-2.87-.16-5.76.04-8.62.3-4.3.35-7.68-5.85-6.96-3.78.44-1.75-3.23-2.09-5.05-.29-1.6-.57-3.98,2.3-3.43,5.5,1.05,5.96-1.96,5.69-6.22-.12-1.85-1.3-4.87,1.17-5.48,2.99-.74,6.44-.63,9.45.09,1.69.4.93,3.17.76,4.79-.47,4.64.17,7.8,6.09,6.83,3.66-.59,2.51,2.5,2.47,4.23-.04,1.71,1.29,4.9-2.39,4.32-5.69-.89-6.52,1.75-6.2,6.62.42,6.36.09,12.76.12,19.14.02,3.97,1.51,6.51,6.04,5.91,1.49-.2,3.35-.39,2.84,1.81-.57,2.44,2.23,5.87-2.07,7.3-9.79,3.24-17.4-1.61-18.17-11.89-.34-4.44-.06-8.93-.06-13.4-.05,0-.09,0-.14,0Z"/>
  <path class="cls-1" d="m564.77,45.06c0-3.99-.17-7.99.06-11.97.17-2.88-.62-4.27-3.67-3.71-3.66.67-4.56-.92-4.5-4.46.06-3.2.64-4.86,4.16-4.24,3.19.56,4.44-.85,3.95-3.97-.05-.31,0-.64,0-.96.03-6.64,3.55-9.05,10.04-7.05,1.52.47,1.45,1.47,1.48,2.56.04,1.75.19,3.53-.02,5.26-.43,3.46,1.11,4.72,4.34,4.15,3.84-.68,4.39,1.18,4.39,4.53,0,3.29-.84,4.78-4.25,4.19-3.48-.6-4.7.65-4.53,4.35.33,7.17.07,14.36.13,21.54.03,3.74,1.47,6.2,5.76,5.72,1.62-.18,3.58-.59,3.14,2-.41,2.36,1.8,5.57-1.85,6.98-9.21,3.56-17.47-1.33-18.33-11.06-.4-4.59-.07-9.24-.07-13.87-.07,0-.15,0-.22,0Z"/>
  <path class="cls-1" d="m985.84,34.81c0-10.2.11-20.41-.07-30.6-.05-3.07.72-4.56,3.95-4.06.16.02.32,0,.48,0,8.65.13,7.11-1.05,7.15,6.92.09,19.45-.06,38.9.11,58.34.03,3.45-.65,5.1-4.38,4.45-1.24-.22-2.56-.17-3.82,0-2.76.35-3.51-.79-3.48-3.48.14-10.52.06-21.04.06-31.56Z"/>
  <path class="cls-1" d="m1021.36,34.97c0,10.04-.24,20.09.11,30.12.15,4.19-1.25,5.38-5.06,4.74-.62-.11-1.29-.1-1.91,0-3.68.6-4.82-.74-4.78-4.6.21-20.08.17-40.17.03-60.25-.02-3.51.53-5.13,4.61-4.95,6.98.31,7,.04,7,7.2,0,9.25,0,18.49,0,27.74Z"/>
  <path class="cls-1" d="m819.86,34.92c0,10.36-.13,20.73.08,31.08.07,3.21-.96,4.33-4,3.83-.16-.03-.32,0-.48,0q-7.13.04-7.13-6.91c0-19.45.1-38.9-.09-58.34-.04-3.64,1.01-4.62,4.56-4.51,7.05.21,7.06,0,7.06,7.12,0,9.25,0,18.49,0,27.74Z"/>
  <path class="cls-1" d="m653.48,25.5c4.06-4.5,7.76-5.88,12.17-5.71,2.44.1,3.48.96,3.25,3.45-.16,1.74-.12,3.51-.03,5.26.11,2.08-.67,2.62-2.8,2.6-9.7-.11-11.88,2.11-11.88,11.59,0,7.81-.12,15.62.06,23.43.07,2.87-.68,3.81-3.71,3.79-7.89-.06-7.89.11-7.89-7.66,0-11.64,0-23.27,0-34.91,0-6.69,0-6.66,6.91-6.66,2.44,0,5.06-.42,3.92,4.83Z"/>
  <path class="cls-1" d="m520.48,45.71c0,6.71-.13,13.41.06,20.12.08,2.94-.47,4.16-3.83,4.09-7.75-.17-7.76.03-7.76-7.84,0-12.29.13-24.59-.08-36.88-.06-3.47.69-5.12,4.43-4.54,1.4.22,2.89.16,4.31,0,2.39-.26,2.95.81,2.91,3.02-.11,7.34-.04,14.69-.04,22.03Z"/>
  <path class="cls-1" d="m514.66,14.26c-4.05-.07-6.22-2.26-6.12-6.19.1-3.8,2.54-6.03,6.5-5.92,3.89.11,6.32,2.57,6.23,6.29-.09,3.71-2.56,5.89-6.61,5.82Z"/>
</svg>