<?xml version="1.0" encoding="UTF-8"?>
<svg id="Layer_1" data-name="Layer 1" xmlns="http://www.w3.org/2000/svg" viewBox="0 0 931.53 359.1">
  <defs>
    <style>
      .cls-1 {
        fill: #ec2227;
        stroke-width: 0px;
      }
    </style>
  </defs>
  <path class="cls-1" d="m200.59,72.46c4.81-.9,7.28-1.69,9.75-1.69,17.69-.3,35.33-.6,53.02-.6,6.98,0,13,1.99,17.93,7.76,5.6,6.8,11.98,12.88,18.42,18.96,7.7,7.4,9.81,7.46,16.31-.6,14.14-17.69,27.74-35.69,41.59-53.74.9-1.2,1.75-2.35,2.47-3.61,7.16-12.1,17.39-17.21,31.66-15.65,9.63,1.08,19.5,0,29.19.42,3.61.12,7.16,1.26,13,2.35-4.51,5.72-7.7,9.75-10.83,13.78-24.68,31.12-49.17,62.29-74.09,93.16-3.73,4.63-4.15,8.19-.3,12.22,8.73,9.15,17.63,18.18,26.48,27.26,3.91,4.03,7.7,2.47,10.65-.96,5.78-6.68,11.43-13.48,16.85-20.34,19.98-25.46,39.72-51.04,59.7-76.43,1.5-1.87,4.21-3.61,6.5-3.73,17.39-.3,34.73-.12,52.12,0,1.26,0,2.47,1.2,4.51,2.29-1.56,2.59-2.77,4.94-4.33,6.86-18.9,24.01-37.8,48.03-56.75,72.04-12.82,16.13-25.7,32.2-38.46,48.33-8.49,10.71-8.25,15.17,1.5,24.98,32.56,32.86,65.3,65.54,97.86,98.28,8.25,8.37,16.55,16.85,24.49,25.4,1.5,1.56,3.07,4.94,2.35,5.9-1.2,1.75-4.15,3.37-6.38,3.37-18.9.3-37.86,1.5-56.57-.42-7.28-.66-14.75-7.76-20.58-13.48-25.88-25.76-51.16-52.12-76.73-78.24-8.85-9.03-11.8-8.85-19.56.96-12.4,15.77-24.68,31.36-36.59,47.42-5.42,7.28-11.8,10.83-20.94,10.41-12.7-.6-25.4-.48-37.98-.9-2.77,0-5.42-1.08-10.11-2.17,10.35-13.18,19.38-24.92,28.71-36.47,15.05-18.9,30.09-37.8,45.38-56.39,4.45-5.42,4.03-9.93-.66-14.68-7.46-7.58-14.68-15.35-22.21-22.75-6.8-6.68-9.81-6.8-15.77.66-16.25,20.04-32.2,40.5-48.39,60.73-1.87,2.29-5,4.94-7.7,4.94-17.69.18-35.33-.18-53.02-.42-.78,0-1.5-.78-3.37-1.75,5.54-7.4,10.65-14.68,16.13-21.67,20.64-26,41.23-52.06,62.17-77.82,4.69-5.78,4.45-10.41-.48-15.47-18.78-19.08-37.55-38.16-56.39-57.23-3.07-3.13-6.02-6.32-10.71-11.31h.18v.06Z"/>
  <path class="cls-1" d="m.48,128.55V11.98C.48.36.9,0,12.4,0h144.2c12.1,0,12.58.42,13.48,12.22.48,6.98.48,14.14.12,21.12-.6,11.13-2.35,12.7-13.36,12.82-27.74.18-55.49.18-83.23.3-14.87,0-16.13,1.38-16.25,16.13,0,9.75.3,19.5,0,29.13-.18,8.25,3.37,11.5,11.62,11.43,26.84-.3,53.74-.12,80.59,0,15.35,0,16.01.9,16.13,16.01,0,5.6-.42,11.19,0,16.85.48,8.25-3.07,11.92-11.31,11.92-20.94,0-41.89,0-62.89.18-7.94,0-15.95.3-23.89,0-6.98-.18-10.35,2.77-10.35,9.93.12,14.75,0,29.43,0,44.18,0,8.73,5.24,10.71,12.82,10.65,28.05-.18,56.09-.18,84.14,0,14.56,0,14.75.42,15.35,14.75.3,5.9.9,11.8.9,17.63,0,11.43-2.05,13.48-13.36,13.48-39.24,0-78.48,0-117.66-.12-9.15,0-18.3-.42-27.44.12-8.85.48-11.98-3.07-11.98-11.74.3-39.42.12-78.9.12-118.32h.48l-.12-.12Z"/>
  <path class="cls-1" d="m617.13,65.06c56.45,1.87,100.93,42.13,100.33,99.78-.6,57.17-43.27,98.76-101.65,98.28-58.86-.48-100.27-42.67-100.27-98.94s43.21-97.2,101.53-99.06l.06-.06Zm.78,50.37c-27.32-.18-48.03,20.34-48.39,48.51-.48,29.31,22.45,48.63,46.94,49.59,21.97.9,48.21-18.48,48.63-48.09.42-29.91-24.31-50.74-47.12-49.95h0l-.06-.06Z"/>
  <path class="cls-1" d="m751.52,162.08c0-26.78.18-53.62,0-80.41,0-7.88,2.95-11.31,10.89-11.13,8.55.3,17.09.12,25.7.12,6.32,0,11.98-.18,14.75,7.88,1.69,4.94,6.32,3.43,10.41,1.2,16.43-9.15,33.64-16.13,52.84-14.38,25.4,2.35,45.62,14.08,56.45,37.8,4.51,9.81,7.4,21.24,7.7,31.96,1.2,37.68.96,75.35,1.26,113.03,0,6.32-2.77,10.05-9.45,10.05-12.1,0-24.19-.12-36.29,0-7.46.12-7.7-4.81-7.7-10.11v-79.5c0-6.2,0-12.4-.18-18.6-.78-22.51-14.93-36.59-36.71-36.59s-35.33,13.78-35.81,36.41c-.6,27.08-.18,54.23-.18,81.25,0,6.5-.3,13-.18,19.5,0,5.24-2.65,7.46-7.58,7.46-12.4,0-24.8.12-37.19,0-5.72,0-8.73-2.95-8.73-8.73v-87.39h.18l-.18.18h0Z"/>
</svg>