<?xml version="1.0" encoding="UTF-8"?>
<svg id="Layer_1" data-name="Layer 1" xmlns="http://www.w3.org/2000/svg" viewBox="0 0 948 454.22">
  <defs>
    <style>
      .cls-1 {
        fill: #117abe;
      }

      .cls-1, .cls-2 {
        stroke-width: 0px;
      }

      .cls-2 {
        fill: #167abe;
      }
    </style>
  </defs>
  <path class="cls-1" d="m157.53,344.77c0-15.34.05-30.4-.05-45.46,0-2.35.8-2.86,3-2.86,36.46.05,72.86.05,109.32,0,2.39,0,2.86.89,2.86,3.05-.05,34.02-.05,67.98,0,102,0,1.92-.8,3.19-2.06,4.5-26.23,26.56-57.76,42.7-94.96,46.59-51.84,5.44-96.42-10.65-132.59-48.14C17.67,378.13,3.5,346.27.54,309.77c-5.58-68.45,32.19-131.13,95.29-158.21,18.44-7.93,37.82-11.87,57.85-12.57,3.33-.14,3.94.94,3.89,3.99-.09,36.78-.09,73.61,0,110.4,0,2.96-.52,4.03-3.85,4.13-44.15,1.41-81.03,36.83-84.4,80.98-3.61,46.82,28.43,87.74,75.07,94.59,29.93,4.41,55.97-4.69,77.13-26.41,16.09-16.56,15.62-43.49-.47-60.52-15.91-16.8-42.84-18.25-60.57-3.24-.8.66-1.31,1.69-2.96,1.88h0Z"/>
  <path class="cls-2" d="m916.28,355.56c-2.3,4.36-2.58,9.15-3.38,13.75-4.5,27.02-9.01,54.1-13.37,81.17-.42,2.67-1.36,3.57-4.03,3.47-6.01-.19-12.01-.28-18.02,0-3.24.19-4.03-1.27-4.46-3.99-2.96-18.53-6.01-37.06-9.06-55.6-2.11-12.95-4.32-25.9-6.62-39.83-1.31,2.3-.94,3.85-.94,5.3,0,29.89-.09,59.73.05,89.61,0,3.52-.84,4.6-4.46,4.46-7.88-.28-15.76-.19-23.6,0-2.63.05-3.71-.47-3.71-3.42.09-50.25.09-100.54,0-150.79,0-2.72.89-3.28,3.43-3.28,11.35.14,22.71.14,34.02,0,2.77,0,3.85.66,4.36,3.61,6.33,34.95,12.86,69.86,20.03,104.86,1.03-5.3,2.06-10.56,3.05-15.86,5.54-29.7,11.12-59.4,16.56-89.1.47-2.58,1.22-3.52,3.99-3.47,11.49.19,22.94.14,34.44,0,2.58,0,3.43.66,3.43,3.33-.09,50.25-.05,100.54,0,150.79,0,2.25-.42,3.42-3.05,3.38-8.54-.14-17.08-.19-25.62,0-3.43.09-3.1-1.92-3.1-4.13v-94.26h.05Z"/>
  <path class="cls-2" d="m214.68,286.36c-3.71-4.46-6.62-9.2-9.48-13.98-20.88-35.09-32.42-73.05-34.95-113.78-3.52-56.91,11.35-108.85,42.13-156.56,2.06-3.24,2.77-2.21,4.36.23,24.21,36.64,38.38,76.8,41.9,120.58,4.69,58.55-9.9,112.13-42.04,161.12-.52.75-1.13,1.41-1.92,2.39h0Zm-.47-265.13c-14.03,27.45-25.1,54.8-30.26,84.36-5.16,29.46-4.32,58.79.42,88.16.47-7.88.61-15.72,1.03-23.55,1.74-33.08,10.93-64.14,24.73-94.02,1.17-2.49,2.06-6.66,4.18-6.66,2.39,0,3.1,4.13,4.27,6.57,17.69,37.02,26.79,75.91,25.95,117.01,10.65-60.52,1.03-117.53-30.36-171.91l.05.05Zm.75,151.12c-16.98,24.49-16.8,86.7.09,102.84,16.61-34.25,15.72-68.27-.09-102.84Z"/>
  <path class="cls-2" d="m640.78,374.99c0-24.82.05-49.59-.09-74.41,0-3.43.99-4.18,4.27-4.13,14.83.19,29.65,0,44.43.09,16.05.05,23.65,7.23,24.16,23.22.61,18.91.56,37.86,0,56.77-.19,6.43-3,11.64-8.82,14.69-2.67,1.36-1.88,3.1-1.41,5.02,4.5,17.92,9.01,35.89,13.65,53.81.75,2.96.47,4.03-2.91,3.94-8.26-.19-16.56-.28-24.82,0-3.47.14-4.18-1.41-4.64-4.27-3.05-16.89-6.19-33.78-9.34-50.67-.14-.8-.23-1.6-.42-2.35s-.8-.99-1.55-.89c-.7.09-.8.66-.8,1.17-.05,1.08-.05,2.11-.05,3.19,0,16.52-.05,33.08.05,49.59,0,2.96-.52,4.27-3.89,4.18-7.88-.23-15.76-.28-23.6,0-3.75.14-4.32-1.31-4.32-4.6.14-24.82.05-49.59.05-74.41l.05.05Zm31.72-29.28c0,8.68-.05,17.31.05,25.99,0,1.36-1.08,3.57,1.17,4.03,2.16.42,4.55.56,6.38-1.31,1.36-1.41,2.06-3.14,2.11-5.07.05-15.58.09-31.2,0-46.78,0-4.13-2.39-6.24-6.05-6.66-2.72-.33-3.75.52-3.66,3.43.19,8.77.05,17.59.05,26.41l-.05-.05Z"/>
  <path class="cls-2" d="m734.99,374.94v-53.16c0-2.82.23-5.58.84-8.35,2.11-10.23,9.01-16.52,19.47-16.8,10.65-.28,21.35-.33,32,0,12.67.38,19.89,8.73,20.55,23.32.23,4.79.09,9.57.09,14.4v90.79c0,4.83-.23,9.62-1.64,14.22-2.58,8.4-8.3,13.18-17.03,14.08-10.79,1.08-21.63.84-32.37.28-14.45-.75-21.58-8.3-21.77-22.76-.28-18.67-.05-37.3-.05-55.97h-.05l-.05-.05Zm41.19-.23v-48.37c0-2.02,0-3.99-.14-6.01-.23-2.67-1.97-4.18-4.46-4.32-2.72-.19-4.55,1.36-5.11,4.08-.23,1.17-.14,2.39-.14,3.57v102.33c0,1.45,0,2.96.42,4.32.7,2.35,2.53,3.33,4.97,3.14,2.3-.19,3.75-1.45,4.18-3.61.28-1.41.23-2.91.23-4.36v-50.76h.05Z"/>
  <path class="cls-2" d="m292.75,375.13v-50.01c0-2.67,0-5.35.23-7.98,1.03-13.09,8.77-20.36,21.91-20.6,8.68-.14,17.36-.09,26.04-.05,16.23.05,23.74,6.99,24.68,23.32.47,8.12.09,16.28.23,24.4,0,2.16-.75,2.72-2.82,2.72-8.68-.09-17.36-.14-26.04,0-2.67.05-3.05-1.08-3.05-3.33.09-7.08.05-14.12,0-21.21,0-4.18-1.83-6.43-4.93-6.43s-4.83,2.3-4.83,6.52v104.81c0,4.22,1.78,6.38,5.02,6.19,3.8-.23,4.74-2.77,4.74-6.1v-30.4c0-1.22.47-3.05-1.69-2.82-3.05.33-3.19-1.45-3.05-3.66.33-4.5-1.92-10.32.89-13.09,2.58-2.58,8.4-.66,12.76-.7,6.66-.09,13.37,0,20.03,0,1.55,0,2.91-.05,2.86,2.21-.42,18.53.99,37.06-.75,55.55-1.13,11.87-7.84,18.2-19.71,19.14-10.37.8-20.83.8-31.2.05-13.89-.94-20.74-8.07-21.11-22.05-.42-15.2-.19-30.4-.23-45.6v-10.88Z"/>
  <path class="cls-2" d="m445,453.9c-3.85,0-7.74-.19-11.59.05-2.72.19-3.75-.75-3.94-3.47-.56-9.99-1.41-19.94-1.97-29.89-.52-8.63-.42-8.63-9.01-8.63-.8,0-1.6.09-2.39,0-3.33-.52-4.32.99-4.5,4.18-.61,11.59-1.6,23.13-2.25,34.67-.14,2.39-.8,3.19-3.28,3.14-8.12-.14-16.28-.19-24.4,0-2.91.05-3.28-1.13-3-3.57,1.55-14.31,2.96-28.62,4.46-42.93,2.02-19.19,4.03-38.43,6.01-57.61,1.74-16.7,3.57-33.36,5.21-50.06.28-2.72,1.22-3.43,3.94-3.38,14.12.14,28.29.14,42.41,0,2.53,0,3.66.38,3.94,3.28,2.21,22.52,4.64,45.04,6.99,67.56,2.53,24.21,5.11,48.47,7.69,72.68.38,3.71.66,7.41,1.13,11.12.23,2.11-.42,2.86-2.58,2.82-4.27-.09-8.54,0-12.81,0l-.05.05Zm-24.91-138.27c-2.21,1.55-1.83,3.28-1.92,4.74-1.45,21.77-2.91,43.54-4.32,65.26-.61,9.38-.56,9.29,8.68,9.24,2.67,0,3.38-.7,3.14-3.42-1.64-22.43-3.19-44.85-4.74-67.23-.19-2.67-.52-5.35-.84-8.59Z"/>
  <path class="cls-1" d="m551.64,374.85c0-24.68.05-49.31-.09-73.99,0-3.33.52-4.55,4.27-4.5,14.83.28,29.61.05,44.43.14,15.95.05,24.02,7.79,24.26,23.69.23,18.67.09,37.3,0,55.97,0,3.61-.61,7.18-1.78,10.6-2.53,7.55-7.88,11.78-15.72,13.04-6.76,1.08-13.61.56-20.36.52-2.82,0-3.61.8-3.61,3.61.14,15.34,0,30.64.14,45.98,0,3.1-.8,4.13-3.99,4.03-7.74-.23-15.48-.23-23.22,0-3.47.14-4.5-.75-4.46-4.36.19-24.91.09-49.87.09-74.79l.05.05Zm31.48-26.6c0,9.34-.05,18.63.05,27.96,0,1.45-1.27,3.85,1.36,4.32,2.49.42,5.11.47,6.94-1.97,1.22-1.69,1.69-3.61,1.74-5.63v-49.12c0-1.88-.42-3.71-1.45-5.3-1.74-2.67-4.46-3-7.08-2.44-2.72.56-1.41,3.05-1.41,4.64-.14,9.2-.05,18.39-.05,27.59l-.09-.05Z"/>
  <path class="cls-2" d="m504.39,453.9c-9.34,0-18.67-.09-28.01.05-3,.05-3.85-.66-4.13-3.89-1.45-16,3.99-30.73,7.74-45.79,7.08-28.15,14.31-56.21,21.63-84.26.84-3.28.19-4.18-3.19-4.08-6.66.23-13.32,0-20.03.09-2.3,0-3-.7-2.96-2.96.14-4.55.14-9.06,0-13.61-.05-2.16.42-3.05,2.82-3.05,17.88.09,35.75.09,53.63,0,2.67,0,2.82,1.13,3,3.28,1.31,14.03-2.72,27.12-6.15,40.4-7.74,29.89-15.25,59.82-23.04,89.71-.84,3.19-.19,3.85,2.96,3.8,8.26-.19,16.56,0,24.82-.14,2.63-.05,3.57.75,3.43,3.38-.19,4.41-.23,8.82,0,13.18.14,2.96-.7,3.94-3.8,3.89-9.62-.19-19.24-.05-28.81-.05l.09.05Z"/>
</svg>