<?xml version="1.0" encoding="UTF-8"?>
<svg id="Layer_1" data-name="Layer 1" xmlns="http://www.w3.org/2000/svg" viewBox="0 0 1364 113.87">
  <defs>
    <style>
      .cls-1 {
        stroke-width: 0px;
      }
    </style>
  </defs>
  <path class="cls-1" d="m559.15,31.5c13.33-9.45,25.84-8.49,34.57,2.24,4.94-5.52,11-8.52,18.57-8.54,12.62-.03,19.99,5.6,20.73,18.11.84,14.18.28,28.45.45,42.68.03,2.56-1.14,2.84-3.3,3-11.42.83-11.41.89-11.41-10.71,0-9.76.13-19.52-.06-29.27-.17-8.36-3.44-11.64-10.83-11.5-6.94.13-11.29,4.75-11.32,12.26-.05,11.38-.15,22.77.11,34.15.09,3.98-1.04,5.71-5.09,5.02-.2-.03-.41,0-.61,0q-9.06.07-9.06-8.75c0-10.17.17-20.33-.06-30.49-.21-9.2-4.49-13.02-12.84-12.11-6,.66-9.42,4.36-9.45,10.48-.05,11.79-.26,23.59.1,35.37.15,4.72-1.37,6.25-5.83,5.53-1.19-.19-2.46-.19-3.65,0-4.25.67-5.49-1-5.42-5.29.24-17.28.29-34.56-.02-51.84-.09-4.83,1.59-6.29,5.9-5.45,3.3.64,8.75-2.75,8.55,5.11Z"/>
  <path class="cls-1" d="m1015.52,62.56c0,2.03,0,4.07,0,6.1,0,10.7-2.14,14.1-12.28,18.06-7.88,3.08-16.21,4.2-24.59,3-15.08-2.15-24.97-10.9-28.39-25.58-3.26-14.01-3.38-28.28,2.35-41.9,5.28-12.55,17.76-19.4,32.78-18.51,15.28.91,24.67,7.59,28.62,20.37,2.08,6.74,1.78,6.88-5.29,7.23-5.26.26-8.76-.15-10.58-6.53-1.76-6.17-7.93-8.3-14.2-8.53-6.55-.24-12.56,1.84-15.45,7.85-7.06,14.7-7.54,29.96.09,44.51,5.06,9.65,20.09,12.14,29.12,6.13,2.53-1.68,2.49-3.83,2.51-6.31.1-11.24.13-11.24-10.81-11.26-.2,0-.41-.03-.61,0-5.01.98-5.84-1.44-5.94-5.97-.11-4.93,1.43-6.25,6.17-6,7.31.39,14.66.25,21.98.04,3.44-.1,4.77.99,4.58,4.49-.24,4.26-.06,8.54-.06,12.81Z"/>
  <path class="cls-1" d="m300.25,48.23c.23-6.98.42-13.07,2.09-19.01,4.48-15.96,16.93-25.61,33.04-25.59,16.25.02,28.49,9.48,32.88,25.64,2.99,11,3.09,22.18.53,33.21-4.35,18.73-17.74,28.73-36.14,27.53-16.81-1.09-29.43-13.71-31.61-31.71-.44-3.63-.57-7.3-.78-10.08Zm54.66-1.8c.19-6.22-.25-12.72-3.02-18.75-3.13-6.8-8.29-10.85-16.11-10.99-7.78-.14-13.52,3.37-16.45,10.33-5.5,13.1-5.46,26.53-.08,39.65,2.98,7.27,9.02,10.8,16.96,10.55,8.04-.26,13.16-4.68,16.1-11.89,2.43-5.96,2.72-12.24,2.6-18.9Z"/>
  <path class="cls-1" d="m1139.96,84.35c-1.32,3.76-10.85,6.75-13.8,4.24-1.22-1.04-.75-2.65-.76-4.03-.02-26.62.03-53.25-.07-79.87-.01-3.35.86-5,4.45-4.54,1.4.18,2.87.2,4.26,0,4.73-.7,6.43,1,6.16,5.96-.43,7.88-.11,15.81-.11,24.35,3.91-2.03,7.03-4.29,10.86-4.95,12.75-2.21,23.13,3.7,27.24,16,3.16,9.47,3.32,19.25.96,28.88-4.71,19.23-22.01,25.29-39.19,13.96Zm.13-26.8c0,2.44-.01,4.88,0,7.32.04,7.39,3.53,11.81,10.16,12.88,6.51,1.05,11.76-2.16,13.97-8.99,2.44-7.55,2.47-15.24-.17-22.75-2.35-6.69-7.4-9.48-14.35-8.36-6.37,1.02-9.58,5.22-9.62,12.58-.01,2.44,0,4.88,0,7.32Z"/>
  <path class="cls-1" d="m144.82,31.11c16.83-12.05,34.78-5.37,39.38,14.15,1.84,7.81,1.88,15.78.26,23.6-4.04,19.51-19.65,26.23-39.3,16.33,0,7.59-.3,14.79.11,21.95.26,4.68-1.3,6.3-5.82,5.65-1.79-.26-3.66-.15-5.49-.02-2.65.18-3.53-.96-3.52-3.57.06-26.42.08-52.84-.01-79.25-.01-3.14,1.43-4.15,4.04-3.53,3.63.86,9.43-3.23,10.35,4.69Zm.34,26.42c0,2.84-.01,5.68,0,8.52.04,6.54,2.68,10.25,8.3,11.68,5.71,1.45,11.55-.56,14.11-5.76,4.76-9.67,4.53-19.62-.46-29.16-2.5-4.77-8.94-6.69-14.47-4.78-5.12,1.77-8.07,5.15-7.52,10.99.26,2.82.05,5.68.05,8.52Z"/>
  <path class="cls-1" d="m480.29,47.03c0-12.61.1-25.22-.07-37.82-.05-3.4.87-4.55,4.42-4.51,15.47.18,30.94.24,46.41,0,5.88-.09,3.8,3.92,4.03,6.68.24,2.95.92,6.07-4.2,5.9-10.17-.34-20.36.08-30.53-.19-4.08-.11-5.42,1.18-5.01,5.16.58,5.61-2.38,13.13,1.22,16.37,3.09,2.78,10.46.85,15.94.95,3.46.06,6.97.38,10.37-.07,5.69-.76,7.2,1.44,6.95,6.94-.19,4.17-1.11,5.62-5.45,5.43-8.13-.34-16.28.02-24.42-.15-3.22-.07-4.85.54-4.64,4.28.31,5.47.31,10.99,0,16.46-.21,3.7,1.33,4.31,4.58,4.26,10.38-.18,20.77.21,31.14-.19,4.77-.18,4.94,2.23,4.49,5.51-.39,2.84,2.16,7.12-4.22,6.99-15.67-.32-31.35-.19-47.02-.03-3.28.03-4.09-1.03-4.06-4.15.15-12.61.06-25.22.06-37.82Z"/>
  <path class="cls-1" d="m224.52,47.08c.04-8.58.53-17.09,4.42-24.98,5.87-11.89,15.68-17.93,28.74-18.35,12.27-.39,22.95,3.13,29.61,14.49.51.87.99,1.78,1.39,2.7,4.81,11.13,3.88,12.39-8.15,12.17-2.94-.05-4.18-.84-4.98-3.78-2.52-9.32-6.61-12.63-15.16-13-8.25-.36-15.09,3.49-17.71,11.28-4.34,12.86-4.28,26.05.01,38.91,2.54,7.61,9.31,11.48,17.17,11.1,8.7-.42,13.51-3.82,15.53-12.64,1.32-5.78,5.23-3.9,8.44-3.97,8.52-.19,8.73.22,6.22,8.27-3.87,12.39-13.71,19.67-27.95,20.67-15.28,1.08-27.11-5.3-33.16-17.89-3.81-7.92-4.42-16.4-4.42-24.99Z"/>
  <path class="cls-1" d="m401.64,76.97c11.89,0,22.42.33,32.92-.13,5.87-.26,4.56,3.31,4.85,6.59.34,3.86-.3,5.74-5.04,5.63-14.85-.35-29.7-.04-44.56-.22-2.31-.03-6.15,1.89-6.79-1.47-.66-3.46-1.61-7.54,1.57-10.92,8.08-8.59,16.02-17.31,23.92-26.06,4.21-4.66,8.61-9.22,11.19-15.09,2.48-5.64,2.5-11.25-1.82-15.9-3.83-4.11-8.81-4.61-14.06-2.6-4,1.53-6.75,4.8-7.08,8.5-.48,5.37-2.92,6.04-7.46,5.89-8.98-.29-9.41-1.06-6.72-9.85C388.99.29,420.07-.2,430.4,11.06c7.25,7.91,7.69,20.58.62,32.24-5,8.25-11.98,14.84-18.45,21.86-3.29,3.57-6.59,7.13-10.93,11.81Z"/>
  <path class="cls-1" d="m1228.18,84.1c-7.37,5.78-15.23,7.4-23.82,4.87-7.78-2.29-13.09-8.63-13.57-16.17-.58-9,3.18-15.63,11.01-19.23,6.85-3.15,14.22-3.35,21.54-3.21,3.61.07,4.58-1.13,4.15-4.56-.61-4.82-2.98-8.01-7.76-8.91-5.23-.99-9.68.26-12.43,5.34-1.19,2.19-13.14,4.06-14.73,2.29-.89-1-.37-2.31-.07-3.46,1.7-6.66,6.24-10.81,12.33-13.35,7.38-3.08,15.04-3.38,22.7-1.22,9.25,2.62,14.35,9.06,14.61,18.63.24,8.53-.01,17.08.15,25.62.07,3.85-.19,7.99,1.13,11.46,2.62,6.89-.64,7.46-5.96,6.74-3.58-.48-8.59,2.2-9.26-4.83Zm-.63-18.5c-1.57-1.24,2.4-5.35-2.27-5.73-5.28-.43-10.66-.12-15.43,2.53-3.04,1.69-4.57,4.62-4.28,8.18.27,3.38,2.36,5.58,5.38,6.79,7.76,3.1,16.57-2.87,16.61-11.78Z"/>
  <path class="cls-1" d="m787.99,62.28c-5.5,0-11,.14-16.49-.05-3.06-.11-3.83.63-3.05,3.79,3.01,12.08,17.43,16.53,27.12,7.44,5.48-5.14,6.64.33,9.32,2.2,4.25,2.97.31,5.01-1.38,6.54-9.55,8.61-20.78,9.89-32.47,5.78-11.03-3.88-16.82-12.39-17.88-23.92-1.18-12.85.59-24.79,11.56-33.53,15-11.96,37.86-4.11,42.09,14.49,3.77,16.6,3.26,17.27-13.31,17.27-1.83,0-3.67,0-5.5,0Zm-7.16-10.96c3.23,0,6.46-.02,9.69,0,1.83.02,3.13-.18,2.59-2.66-1.13-5.19-3.07-9.72-8.87-10.97-5.65-1.22-10.36.18-13.41,5.57-1.31,2.31-3.18,5.11-2.16,7.2,1.01,2.07,4.39.62,6.71.83,1.8.16,3.63.03,5.45.03Z"/>
  <path class="cls-1" d="m1336.9,66.95c3.63-12,7.29-22.14,9.65-32.57,1.52-6.7,4.51-8.7,11.08-8.16,7.33.6,7.36.14,4.94,7.14-7.2,20.88-14.34,41.78-21.62,62.63-4.64,13.29-11.83,18.53-22.8,17.81-4.67-.31-5.13-2.61-4.88-6.3.21-3.18-.76-6.21,4.6-6.38,8.38-.27,13.6-9.02,10.79-16.99-6.19-17.58-12.35-35.17-18.72-52.69-1.43-3.94-1-5.23,3.58-5.18,10.7.11,10.72-.12,13.91,10.1,3.01,9.66,6,19.33,9.49,30.6Z"/>
  <path class="cls-1" d="m118.98,57.49c-.19,23.41-16.25,36.93-37.41,31.5-13.39-3.43-21.87-16.57-20.9-32.48.82-13.4,5.1-25.27,18.99-29.63,21.93-6.9,39.78,6.78,39.32,30.61Zm-14.68,1.14c.07-7.29-.95-11.56-3.47-15.32-5.65-8.43-17.4-8.42-22.1.48-4.69,8.88-4.71,18.34-.24,27.45,2.35,4.79,6.56,6.95,11.96,6.8,5.23-.14,8.79-2.84,11.13-7.24,2.14-4.02,2.83-8.42,2.71-12.18Z"/>
  <path class="cls-1" d="m1115.11,57.79c-.31,23.3-16.6,36.75-37.71,31.14-13.06-3.47-21.34-16.35-20.64-32.12.68-15.43,7.69-26.41,19.27-30.18,21.41-6.97,39.39,7.37,39.08,31.16Zm-14.7-.26c.21-4.97-.56-9.73-3.29-13.99-5.65-8.81-17.63-8.73-22.41.52-4.51,8.73-4.45,17.98-.23,26.92,2.27,4.82,6.4,7.13,11.81,7.07,5.47-.06,9.17-2.85,11.56-7.53,2.08-4.06,2.7-8.47,2.55-12.98Z"/>
  <path class="cls-1" d="m880.8,25.22c11.21-.02,19.8,2.36,24.89,11.42,1.47,2.61,3.55,6.12.41,8.71-2.68,2.21-12.39-.28-13.71-2.91-2.44-4.83-6.55-6.54-11.65-5.88-3.8.49-7.26,1.93-7.77,6.4-.51,4.46,2.83,5.82,6.23,7,5.95,2.05,12.24,2.87,18.05,5.46,6.77,3.03,10.86,7.88,10.94,15.41.07,7.16-3.37,12.6-9.77,15.67-10.99,5.28-21.98,5.01-32.69-1.05-2.9-1.64-5.2-3.98-6.79-6.85-1.63-2.93-4.36-7.26-1.69-9.22,3.16-2.33,8.23-.86,12.46-.5.52.05.92,1.62,1.35,2.5,3.23,6.55,11.35,9.36,18.05,6.24,2.35-1.1,4.14-2.78,4.37-5.44.26-2.98-1.48-5.1-4.01-6.28-2.37-1.11-4.96-1.78-7.47-2.56-4.07-1.27-8.29-2.14-12.2-3.76-6.58-2.73-11.35-7.15-11.52-14.95-.17-8.11,4.19-13.29,11.03-16.77,4.07-2.07,8.48-2.78,11.49-2.65Z"/>
  <path class="cls-1" d="m40.87,53.72c0,10.17-.15,20.35.08,30.51.08,3.63-.75,4.86-4.65,4.82-10.4-.1-10.41.12-10.41-10.55,0-18.31-.28-36.62.17-54.92.14-5.73-1.74-7.03-6.86-6.48-3.62.39-7.32.08-10.99.08-8.52,0-8.4,0-8.13-8.55.08-2.76.62-3.94,3.72-3.92,19.75.13,39.51.18,59.26,0,5.95-.06,3.62,4.07,3.93,6.78.35,3.06.72,6.14-4.31,5.79-5.88-.41-11.81.06-17.71-.15-3.27-.12-4.19,1.12-4.15,4.25.15,10.78.06,21.56.06,32.34Z"/>
  <path class="cls-1" d="m680.3,57.05c0-3.66-.21-7.33.05-10.97.38-5.48.44-9.79-7.46-8.86-4.81.56-2.24-4.11-2.66-6.43-.38-2.04-.73-5.06,2.93-4.37,7.01,1.34,7.59-2.5,7.25-7.92-.15-2.36-1.66-6.21,1.48-6.98,3.81-.94,8.2-.8,12.04.12,2.15.51,1.18,4.04.97,6.1-.6,5.92.21,9.93,7.76,8.71,4.66-.76,3.2,3.18,3.15,5.39-.05,2.18,1.64,6.24-3.05,5.5-7.24-1.14-8.31,2.23-7.9,8.43.53,8.1.12,16.25.16,24.39.02,5.06,1.92,8.3,7.69,7.53,1.9-.25,4.26-.5,3.61,2.3-.72,3.11,2.84,7.48-2.63,9.3-12.47,4.13-22.16-2.04-23.15-15.15-.43-5.66-.07-11.37-.07-17.06-.06,0-.12,0-.18,0Z"/>
  <path class="cls-1" d="m719.41,57.39c0-5.08-.22-10.18.07-15.24.21-3.66-.79-5.44-4.67-4.72-4.67.85-5.81-1.17-5.73-5.68.08-4.07.82-6.19,5.3-5.4,4.06.71,5.66-1.08,5.04-5.06-.06-.4,0-.81,0-1.22.04-8.46,4.52-11.53,12.8-8.98,1.94.6,1.85,1.87,1.88,3.26.05,2.24.25,4.5-.03,6.7-.55,4.41,1.41,6.02,5.53,5.28,4.89-.87,5.59,1.5,5.59,5.77,0,4.19-1.07,6.09-5.42,5.33-4.43-.77-5.99.82-5.77,5.54.42,9.13.09,18.29.16,27.44.04,4.76,1.88,7.9,7.34,7.29,2.07-.23,4.57-.75,4,2.55-.52,3.01,2.3,7.1-2.35,8.9-11.73,4.54-22.26-1.69-23.35-14.09-.52-5.85-.09-11.77-.09-17.67-.09,0-.19,0-.28,0Z"/>
  <path class="cls-1" d="m1255.76,44.34c0-13,.14-25.99-.09-38.98-.07-3.91.91-5.81,5.03-5.18.2.03.41,0,.61,0,11.01.17,9.06-1.33,9.1,8.82.11,24.77-.08,49.55.14,74.32.04,4.4-.83,6.49-5.58,5.67-1.58-.27-3.27-.21-4.87,0-3.52.45-4.47-1-4.43-4.43.18-13.4.07-26.8.07-40.2Z"/>
  <path class="cls-1" d="m1301.01,44.55c0,12.79-.3,25.6.15,38.37.19,5.33-1.59,6.86-6.44,6.04-.79-.13-1.64-.13-2.43,0-4.69.77-6.14-.95-6.09-5.86.26-25.58.22-51.17.04-76.75-.03-4.47.67-6.54,5.87-6.3,8.9.4,8.91.05,8.91,9.17,0,11.78,0,23.55,0,35.33Z"/>
  <path class="cls-1" d="m1044.33,44.48c0,13.2-.17,26.4.1,39.59.08,4.09-1.22,5.52-5.1,4.88-.2-.03-.41,0-.61,0q-9.08.05-9.08-8.81c0-24.77.13-49.55-.11-74.32-.04-4.64,1.29-5.88,5.81-5.74,8.98.27,8.99.01,8.99,9.07,0,11.78,0,23.55,0,35.33Z"/>
  <path class="cls-1" d="m832.4,32.48c5.17-5.73,9.88-7.49,15.5-7.27,3.1.12,4.44,1.22,4.14,4.39-.21,2.22-.16,4.47-.04,6.7.14,2.65-.85,3.34-3.57,3.31-12.36-.14-15.13,2.69-15.13,14.76,0,9.95-.15,19.9.08,29.85.08,3.66-.86,4.86-4.72,4.83-10.05-.08-10.06.14-10.06-9.76,0-14.82,0-29.65,0-44.47,0-8.52,0-8.48,8.8-8.49,3.1,0,6.45-.54,4.99,6.15Z"/>
  <path class="cls-1" d="m662.98,58.23c0,8.54-.17,17.09.08,25.62.11,3.75-.6,5.3-4.88,5.2-9.87-.22-9.88.04-9.88-9.98,0-15.66.16-31.32-.1-46.98-.08-4.42.88-6.53,5.64-5.78,1.79.28,3.68.21,5.49.01,3.04-.33,3.75,1.03,3.71,3.84-.14,9.35-.05,18.71-.05,28.06Z"/>
  <path class="cls-1" d="m655.57,18.17c-5.16-.08-7.92-2.88-7.79-7.89.12-4.84,3.24-7.68,8.28-7.54,4.95.14,8.05,3.27,7.94,8.02-.11,4.73-3.26,7.5-8.42,7.41Z"/>
</svg>