<?xml version="1.0" encoding="UTF-8"?>
<svg id="Layer_1" data-name="Layer 1" xmlns="http://www.w3.org/2000/svg" viewBox="0 0 376.89 459.23">
  <defs>
    <style>
      .cls-1 {
        fill: #3b54a5;
      }

      .cls-1, .cls-2, .cls-3, .cls-4, .cls-5 {
        stroke-width: 0px;
      }

      .cls-2 {
        fill: #3952a3;
      }

      .cls-3 {
        fill: #18161d;
      }

      .cls-4 {
        fill: #251714;
      }

      .cls-5 {
        fill: #ec2024;
      }
    </style>
  </defs>
  <path class="cls-1" d="m84.82,428.8c-.1-2.74-.3-5.44-.35-8.18-.35-17.06-.1-34.12-.15-51.13,0-1.8,0-1.85,1.8-1.85h17.31c1.15,0,1.8.25,1.65,1.55v85.7c0,3.19.45,2.79-2.89,2.79h-21.25c-1.45,0-2.19-.45-2.94-1.7-8.83-15.46-17.76-30.88-26.59-46.39-2.1-3.64-3.84-7.48-5.79-11.17-.35-.65-.55-1.4-1.25-2,0,3.39-.15,6.63,0,9.88.25,4.84.25,9.63.25,14.47v35.52c.1,1-.3,1.45-1.35,1.4h-17.01c-2.79,0-2.44.1-2.44-2.59v-85.7c0-1.75,0-1.8,1.85-1.8,7.53,0,15.11.05,22.65-.05,1.7,0,2.1,1,2.74,2.05,7.98,13.92,15.96,27.84,23.94,41.7,2.94,5.14,5.59,10.43,8.28,15.66.35.65.7,1.3,1.1,1.95.15-.05.3-.1.45-.15v.05Z"/>
  <path class="cls-3" d="m351.3,282.44c-5.04.5-9.83.95-14.62,1.55-9.08,1.15-15.96-6.98-16.81-13.52-.9-7.18,1.55-13.02,7.13-17.51,3.24-2.64,7.03-4.24,11.17-4.89,1.9-.3,3.74,0,5.59.3,3.69.55,7.28,1.4,10.82,2.69,8.48,3.09,14.62,8.73,18.26,16.96,2.34,5.29,3.99,10.77,4.04,16.66.15,12.52-7.28,26.09-21.15,31.13-12.77,4.64-25.39,4.79-37.81-1.15-8.83-4.19-15.06-10.82-18.36-20.15-1.15-3.14-1.4-3.24-4.79-2.89-3.09.35-6.09,1.25-9.08,2.05-5.14,1.45-10.38,1.9-15.66,2.19-5.84.35-11.67.3-17.51.2-1.6,0-2.54.45-3.29,1.9-.9,1.8-2.05,3.49-3.14,5.19-.7,1.15-1.6,2.15-2.59,2.99-1.9,1.6-3.64,1.25-4.69-1-.6-1.3-.75-2.69-.5-4.09.55-3.14,1.95-5.89,4.09-8.23.65-.7,1.3-1.35,1.95-2,1.75-1.8,2.29-3.94,1.95-6.44-.9-5.69-2-11.32-2.14-17.11-.05-2.1-.1-4.19.45-6.29.65-2.44,1.9-4.39,3.94-5.89.4-.25.75-.6,1.15-.8,4.04-2.29,8.43-3.79,12.97-5.89v2.54c0,3.34-.3,6.68.15,10.03.9,6.44,3.79,9.78,10.03,11.27,3.49.85,7.08,1.1,10.68.45,4.44-.8,8.03-3.24,11.02-6.53,5.39-5.94,8.88-12.72,9.38-20.85.3-4.89.3-9.83,0-14.72-.3-5.19-2.24-9.78-4.84-14.22-2.34-3.99-5.09-7.63-8.33-10.92-4.39-4.44-9.88-6.93-15.81-8.43-10.38-2.59-20.55-2.05-30.28,2.49-9.98,4.64-16.81,12.02-19.6,22.95-1.4,5.49-2.34,11.07-3.69,16.61-.6,2.39-1.25,4.79-2.14,7.13-.9,2.29-2.14,4.29-4.14,5.84-1.55,1.2-1.5,1.3-.25,2.99.65.85,1.35,1.7,2.05,2.54,8.23,10.33,10.18,21.7,5.89,34.17-1.4,4.04-3.39,7.83-5.84,11.37-5.14,7.43-12.37,11.62-21.15,13.32-13.37,2.54-24.89-1.2-34.72-10.38-4.64-4.34-7.13-9.93-8.58-16.01-1.85-7.83-1.75-15.56,1-23.2,1.25-3.39,3.09-6.44,5.74-8.93,1-.95,2-1.95,2.74-3.14.9-1.5.9-2.59-.5-3.44-4.49-2.69-5.34-7.18-6.09-11.77-.8-5.14-1.45-10.33-2.79-15.36-1.3-4.84-2.99-9.48-5.59-13.77-4.89-8.18-12.07-13.02-21.45-14.47-6.48-1-13.02-1.2-19.55-.45-15.11,1.75-24.89,10.33-30.48,24.09-1.85,4.49-2.74,9.23-2.89,14.07-.15,5.79-.05,11.52,1.4,17.16,1.1,4.19,2.99,7.98,5.74,11.32,2.05,2.49,4.29,4.74,6.73,6.78,1.65,1.4,3.54,2.34,5.69,2.49,3.79.3,7.63.4,11.37-.55,5.84-1.5,9.03-5.49,10.23-11.17.35-1.75.6-3.54.95-5.29.15-.75.3-1.55.6-2.24.9-2.29,2.44-3.09,4.84-2.29,2.69.85,5.24,2.05,7.38,3.89,4.39,3.64,5.84,8.48,5.29,14.02-.2,2.19-.75,4.29-1.45,6.34-.75,2.19-1.4,4.44-1.85,6.73-.85,4.29-.05,7.98,3.29,11.02,2.59,2.29,4.04,5.29,4.64,8.68.3,1.5.2,2.94-.3,4.39-.35,1-.9,1.8-1.85,2.34-1.5.9-2.84.45-3.49-1.2-1.5-3.79-4.14-6.73-6.98-9.48-1.15-1.1-2.64-1.55-4.24-1.7-2.39-.2-4.79-.45-7.23-.4-9.53.2-18.91-1.05-28.03-3.89-1.05-.3-2.1-.55-3.19-.75-2.29-.45-4.14.25-5.44,2.24-.6.9-1.2,1.8-1.7,2.79-5.59,10.97-14.72,17.46-26.49,20.3-11.32,2.69-22.2,1.5-32.47-4.19-9.68-5.39-14.72-13.67-15.81-24.59-.55-5.44,0-10.73,1.2-15.96,2.79-11.77,10.53-19.11,21.65-23.1,7.18-2.59,14.52-2.64,21.6.5,6.04,2.69,10.18,7.08,11.47,13.77.8,4.14.3,8.23-1.5,12.07-1.75,3.69-4.84,5.54-8.68,6.34-3.29.7-6.68.6-9.98.35-3.89-.3-7.73-.75-11.82-1.15,0,3.79-.2,7.48.85,11.17,1.05,3.64,3.24,5.89,6.78,7.03,5.94,1.95,11.82,1.85,17.61-.35,10.63-3.99,17.06-11.77,19.16-22.85,2.44-12.82-1.45-23.79-10.97-32.72-2.39-2.24-4.84-4.39-7.33-6.53-.85-.7-1.15-1.35-.95-2.54,1.45-7.23,2.69-14.52,5.44-21.45,6.63-16.86,18.76-27.69,36.07-32.72,17.41-5.04,34.52-3.49,51.08,3.44,13.72,5.74,22.9,16.31,28.98,29.63,2.69,5.84,4.34,11.97,5.64,18.21.45,2.19,1.1,4.34,1.95,6.44.5,1.3,1.2,2.54,1.9,3.74,3.84,6.39,12.57,5.19,15.96.8,2.19-2.84,3.34-6.14,4.04-9.58,1.3-6.48,3.14-12.82,6.09-18.81,4.54-9.28,10.68-17.31,19.06-23.5,6.09-4.49,13.07-7.08,20.3-9.08,8.58-2.39,17.41-3.74,26.29-2.74,21.55,2.29,45.94,13.42,53.03,44.8,1,4.39,1.5,8.88,2.34,13.32.3,1.45,0,2.39-1.25,3.39-2.74,2.1-5.29,4.34-7.88,6.58-6.83,5.84-10.38,13.22-10.58,22.25-.1,4.59-.05,9.18,1.1,13.67,2.74,10.33,9.43,16.51,19.8,18.81,4.44,1,8.93,1.1,13.47,1,1.95,0,3.39-.8,4.69-2.19,2.84-3.09,4.44-6.73,4.59-10.92.05-1.65,0-3.24,0-5.14h-.1Zm-109.94,22.45c1.3-.7,2.05-1.7,2.69-2.69,1.35-2.1,2.69-4.19,3.84-6.39.75-1.4,1.65-2,3.29-1.95,6.53.1,13.07.15,19.6-.2,4.79-.25,9.58-.8,14.27-2.05,3.04-.85,6.14-1.8,9.28-2.15,4.84-.55,5.84.1,7.53,4.79,2.14,5.94,5.79,10.77,10.82,14.62,7.33,5.59,15.76,7.98,24.84,8.08,6.63.1,13.07-1.4,19.26-3.99,11.87-5.09,19.06-18.41,17.61-31.18-.55-4.89-2.1-9.58-4.24-14.02-3.29-6.63-8.38-11.32-15.21-14.07-2.94-1.2-6.04-2.05-9.18-2.59-2.19-.4-4.44-1.1-6.68-.8-5.09.7-9.53,2.79-12.97,6.68-4.89,5.49-5.54,13.37-1.5,18.96,2.34,3.24,5.29,5.79,9.63,5.74,2.34,0,4.64-.1,6.98-.4,3.64-.45,7.23-.85,10.87-1.2,1.55-.15,1.6,0,1.6,1.45,0,2.1.1,4.19,0,6.29-.3,5.04-2.24,9.33-5.89,12.82-1.55,1.5-3.34,2.24-5.44,2.29-4.59.1-9.18,0-13.72-.95-11.22-2.44-18.81-8.83-21.9-20.1-1.4-5.04-1.5-10.13-1.35-15.26.3-9.48,4.09-17.26,11.32-23.4,2.39-2,4.74-4.04,7.13-5.99.95-.75,1.4-1.55,1.15-2.79-.8-4.09-1.3-8.28-2.19-12.37-6.09-27.09-26.94-40.36-50.98-42.85-9.28-.95-18.46.55-27.39,3.24-6.98,2.1-13.62,4.84-19.31,9.48-9.38,7.63-15.61,17.41-19.65,28.73-1.5,4.09-2.19,8.43-3.24,12.62-.95,3.74-2.39,7.23-5.24,9.98-4.39,4.24-13.87,5.14-18.36-1.9-.8-1.25-1.55-2.54-2.1-3.89-1.05-2.44-1.8-4.99-2.34-7.58-1.3-6.19-2.94-12.22-5.64-17.96-5.74-12.32-14.32-22-26.84-27.74-8.93-4.09-18.46-5.79-28.23-6.34-7.53-.45-14.87.7-22.1,2.74-14.82,4.29-25.89,13.12-32.67,27.14-3.69,7.68-5.34,15.86-6.93,24.14-.2.95.1,1.6.85,2.24,2.05,1.8,4.09,3.59,6.09,5.44,10.28,9.38,14.52,20.95,12.22,34.72-2.94,17.71-19.35,29.33-35.82,26.44-9.43-1.65-11.57-5.39-12.92-12.22-.65-3.34-.3-6.68-.35-10.03,0-1.55.05-1.65,1.55-1.5,4.04.35,8.03.8,12.07,1.15,3.94.35,7.93.55,11.77-.7,2.44-.8,4.24-2.29,5.34-4.59,1.6-3.49,2.05-7.18,1.3-10.92-1.25-5.99-5.14-9.78-10.68-12.07-6.09-2.49-12.32-2.49-18.46-.45-10.48,3.49-17.96,10.08-20.8,21.1-1.4,5.39-1.9,10.82-1.25,16.41,1.15,10.03,5.89,17.56,14.77,22.4,10.43,5.69,21.4,6.53,32.72,3.29,10.08-2.89,17.91-8.78,22.75-18.31.6-1.2,1.35-2.29,2.1-3.34,2-2.74,4.69-3.74,7.98-2.99,1.9.4,3.79.8,5.64,1.35,6.34,2,12.87,2.79,19.5,3.04,2.89.1,5.74.1,8.63.1,5.44,0,10.03,1.55,13.27,6.34,1.45,2.15,3.04,4.24,4.34,6.68,1.25-1.5,1.2-3.04.9-4.54-.6-2.99-2.05-5.49-4.29-7.58-2.79-2.59-4.09-5.74-3.94-9.58.1-2.84.85-5.54,1.65-8.23.7-2.29,1.55-4.59,1.9-6.98.8-5.64-.95-11.72-7.38-14.67-.9-.4-1.8-.9-2.74-1.25-2.05-.8-2.64-.55-3.14,1.6-.45,1.9-.65,3.84-1,5.74-1.4,7.18-5.44,11.92-12.67,13.57-3.19.75-6.48.7-9.78.6s-6.24-1.15-8.78-3.29c-1.75-1.45-3.34-3.04-4.89-4.69-4.34-4.54-7.38-9.83-8.63-16.01-1.6-8.18-1.9-16.41,0-24.54,2.89-12.82,9.83-22.7,21.8-28.73,6.04-3.04,12.67-3.49,19.26-3.84,4.19-.2,8.38.25,12.57.8,9.43,1.25,17.01,5.59,22.55,13.42,3.64,5.19,5.79,10.97,7.38,17.01,1.35,5.04,2,10.23,2.79,15.36.65,4.04,1.4,7.88,5.34,10.38,2.19,1.4,2.29,3.69,1,5.99-.8,1.45-2,2.59-3.14,3.74-2.94,2.84-4.84,6.29-5.94,10.13-2.1,7.28-1.9,14.62.2,21.85,1.3,4.54,3.29,8.73,6.63,12.17,8.58,8.68,18.91,12.47,31.08,11.02,6.29-.75,12.17-2.79,16.91-7.13,7.88-7.18,12.07-16.36,12.67-26.94.5-8.23-2.54-15.36-7.68-21.7-1-1.2-1.95-2.44-2.79-3.74-.95-1.45-.75-2.54.4-3.79.35-.4.75-.8,1.2-1.1,1.55-1.1,2.44-2.59,3.14-4.24s1.3-3.34,1.7-5.09c1.3-5.59,2.54-11.22,3.74-16.81,2.69-12.77,10.28-21.6,22.05-26.84,9.93-4.39,20.25-4.99,30.78-2.44,6.53,1.6,12.52,4.29,17.31,9.13,4.19,4.24,7.58,9.03,10.28,14.37,2.1,4.09,3.39,8.38,3.59,12.92.2,4.44.1,8.88,0,13.32,0,1.65-.3,3.24-.55,4.84-1.2,7.08-4.64,12.97-9.33,18.26-3.39,3.79-7.53,6.53-12.62,7.43-3.79.65-7.58.4-11.32-.55-7.58-1.85-11.17-6.04-11.97-13.82-.25-2.39-.2-4.84-.15-7.23,0-1-.4-1.3-1.3-.9-2.64,1.15-5.34,2.15-7.83,3.59-3.04,1.75-4.49,4.34-4.69,7.83-.3,5.94.6,11.82,1.75,17.61,1.05,5.04.2,9.18-3.84,12.57-2.05,1.75-3.19,4.19-3.74,6.83-.25,1.25-.25,2.49.7,3.79l-.15-.2Z"/>
  <path class="cls-1" d="m253.12,412.39c.1,7.38-.8,14.32-3.34,20.95-5.24,13.57-15.16,21.75-29.33,24.69-8.08,1.7-16.26,1.6-24.29-.35-14.32-3.49-23.99-12.22-28.48-26.24-3.94-12.32-3.99-24.89-.05-37.21,4.44-13.92,13.92-22.75,28.13-26.29,9.13-2.29,18.41-2.29,27.49.15,14.72,3.99,23.84,13.72,27.94,28.28,1.5,5.34,2.1,10.82,2,16.06l-.05-.05Zm-64.15.05c-.05,5.59.45,10.92,2.39,16.01,2.74,7.18,7.78,11.47,15.61,12.12,6.83.6,12.82-1.15,17.06-6.98,1.9-2.59,3.09-5.59,3.84-8.68,1.65-6.83,1.75-13.72.75-20.6-.55-3.89-1.6-7.58-3.64-10.97-2.34-3.89-5.59-6.68-10.03-7.78-8.68-2.19-19.8-.4-24.04,12.67-.15.5-.35,1.05-.45,1.55-1.2,4.24-1.55,8.53-1.45,12.72l-.05-.05Z"/>
  <path class="cls-1" d="m309.89,366.3c6.68,0,13.17.95,19.4,3.44,8.98,3.64,15.31,9.93,18.36,19.31q.65,2.05-1.35,2.84c-5.54,2.24-11.07,4.49-16.66,6.73q-1.9.75-2.54-1.35c-.25-.75-.5-1.5-.75-2.19-2.29-6.73-7.23-9.88-14.07-10.33-10.08-.65-17.21,4.19-20.55,13.77-1.3,3.69-1.8,7.53-1.95,11.47-.2,5.39,0,10.73,1.55,15.96.6,2.19,1.45,4.24,2.64,6.19,2.19,3.59,5.29,6.09,9.28,7.38,3.94,1.25,7.93,1.6,11.97.65,6.24-1.45,10.13-5.49,12.07-11.52.85-2.69.9-2.69,3.69-1.9,5.54,1.55,11.07,3.09,16.61,4.69,1.7.5,1.75.5,1.2,2.19-3.64,11.47-11.07,19.31-22.6,23-10.43,3.34-21,3.39-31.53.4-12.67-3.64-21.45-11.82-25.79-24.29-4.59-13.27-4.64-26.79,0-40.06,4.84-13.82,14.92-22,29.13-25.24,3.89-.9,7.83-1.15,11.82-1.15h.05Z"/>
  <path class="cls-1" d="m125.12,412.79v-43.65c-.1-1.1.35-1.55,1.45-1.5,2.79.05,5.59,0,8.43,0h11.42q2.24,0,2.24,2.34v85.7q0,2.05-2.05,2.05h-19.4c-2.1,0-2.14,0-2.14-2.19v-42.75h.05Z"/>
  <path class="cls-4" d="m156.65,85.55c.7-.8.55-1.7.65-2.49.95-5.89.9-11.77.65-17.71-.3-7.38-.1-14.77,1.6-22.05,1.5-6.34,4.24-12.02,9.03-16.51,1.35-1.3,2.64-2.59,4.04-3.84.5-.45,1.05-1,1.85-.5.65.4.55,1.05.5,1.65-.15,1.15-.35,2.29-.5,3.44-.9,6.04-.1,11.92,1.35,17.81,2.05,8.18,5.04,15.96,9.43,23.2,1.55,2.54,3.29,4.94,5.64,6.78,1.1.85,2.24,1.75,3.89,1.35,0-1.6-.5-3.04-.95-4.49-.65-2.29-1.3-4.64-2.19-6.88-2.99-7.28-3.84-14.87-3.94-22.6-.1-6.39.05-12.77.3-19.16.1-2.19.45-4.34,1.05-6.44,1.75-5.99,4.64-11.47,7.43-17.11.95.6,1.2,1.55,1.55,2.39,7.53,15.91,17.11,30.48,28.23,44.05,3.54,4.34,7.28,8.53,10.73,12.92,4.19,5.34,7.43,11.27,9.38,17.86,2.14,7.38,1.4,14.62-.9,21.8-1.55,4.84-3.54,9.48-6.24,13.77-.4.65-.9,1.3-1.35,1.9-2.64,3.89-6.19,5.99-10.97,5.94-1.8,0-3.59.05-5.39.1-17.36.15-34.72-.05-52.08-.6-5.99-.15-11.97-.35-17.91-1.3-1.85-.3-3.64-.65-5.44-1.2-3.84-1.2-6.68-3.59-8.43-7.23-2.49-5.29-4.94-10.58-5.59-16.46-1.05-9.63,0-18.96,4.74-27.59,1.15-2.1,2.34-4.24,3.54-6.29.4-.7.75-1.65,1.85-1.5,1.05.15,1.15,1.1,1.35,1.95.75,3.19,1.45,6.39,2.34,9.48,1,3.59,2.44,7.03,4.59,10.13,1.55,2.24,3.39,4.24,5.94,5.39l.25.05Zm15.61-58.81c-5.69,4.64-8.68,10.33-10.28,16.81-1.8,7.33-1.85,14.82-1.6,22.3.2,6.09.15,12.12-.8,18.16-.7,4.54-2.19,5.24-5.94,2.59-3.24-2.24-5.39-5.39-7.08-8.83-2.05-4.04-3.19-8.43-4.24-12.82-.15-.6,0-1.25-.75-1.7-1,1.2-1.6,2.64-2.34,3.99-4.59,8.18-5.59,17.06-4.64,26.24.55,5.59,2.89,10.63,5.19,15.61,1.6,3.39,4.14,5.54,7.78,6.53,4.09,1.15,8.28,1.45,12.42,1.8,9.18.7,18.36.6,27.54.85,12.77.35,25.54.15,38.31.15,4.79,0,8.43-1.75,10.87-5.89.5-.85,1.1-1.7,1.65-2.54,2.84-4.94,4.89-10.23,6.14-15.81.7-3.09,1.2-6.29.9-9.48-.45-5.19-1.95-10.03-4.29-14.67-2.89-5.69-6.78-10.63-10.92-15.36-12.67-14.57-23.84-30.13-32.32-47.54-.3-.6-.4-1.35-1.25-1.7-1.6,3.29-3.14,6.58-4.44,10.03-1,2.79-1.65,5.69-1.75,8.63-.25,6.39-.3,12.77-.25,19.16.05,7.38,1,14.57,3.79,21.45.95,2.34,1.65,4.89,2.34,7.33.45,1.65.75,3.34,1.1,4.99.25,1.15-.3,1.65-1.4,1.95-1.75.45-3.39.2-4.94-.65-1.7-1-3.14-2.29-4.39-3.79-3.54-4.24-6.04-9.03-8.23-14.07-3.24-7.53-5.59-15.31-6.48-23.5-.35-3.24-.2-6.53.25-10.13l.05-.1Z"/>
  <path class="cls-3" d="m242.05,146.91h-99.47c-2.89,0-2.49.25-2.49-2.44v-7.48c0-1.9.2-2.05,2.1-2.39,1.65-.3,3.24-.3,4.89-.3,11.52-.05,23.05.15,34.57.3,19.26.2,38.46.1,57.72.15h1.85c.6,0,.85.3.85.85v11.32Zm-51.03-2.29h47.59c.75,0,1.15-.35,1.1-1.15v-5.39c0-.65-.25-1.05-.95-1.05h-1.4c-21.85-.15-43.7.25-65.6-.4-8.88-.25-17.76-.05-26.59-.05h-1.4c-.95,0-1.45.35-1.45,1.4v5.39c0,.9.4,1.25,1.25,1.25h47.44Z"/>
  <path class="cls-3" d="m188.28,208.66c-2-3.94-3.84-7.73-5.84-11.52-4.49-8.68-10.48-16.16-17.76-22.6-2.29-2-4.69-3.79-7.83-4.39-1.3-.25-2.44-.95-3.29-2.1-.95-1.25-.65-2.34.8-2.99,1.45-.6,2.99-.8,4.54-.9,14.37-.85,28.78-.85,43.2-.7,4.49,0,9.03.15,13.52.25,2.34.05,4.69.2,6.93.85,2,.55,2.59,1.25,2.59,2.79s-1.15,2.94-2.74,3.39c-.2.05-.45.1-.7.1-4.19.3-7.48,2.44-10.53,5.04-3.84,3.24-6.98,7.08-9.93,11.12-4.64,6.29-8.68,12.87-11.77,20.05-.25.55-.35,1.2-1.2,1.65v-.05Zm0-5.24c.65-.35.75-.75.9-1.1,2.74-5.99,6.39-11.37,10.23-16.66,3.64-4.99,7.53-9.68,12.62-13.32,2.54-1.85,5.24-3.34,8.48-3.59.45,0,.9-.2,1.35-.3.5-.15.85-.4.9-.95,0-.65-.55-.75-.95-.85-1.55-.25-3.09-.55-4.64-.6-5.69-.2-11.37-.3-17.01-.4-10.73-.2-21.45.25-32.18.35-3.29,0-6.53.45-9.78.55-.7,0-1.4.15-1.95.6.35.45.85.7,1.4.8,3.34.65,5.99,2.54,8.43,4.69,7.78,6.83,14.17,14.82,18.81,24.09,1.1,2.19,2.24,4.44,3.39,6.68h0Z"/>
  <path class="cls-2" d="m241.35,304.84c-.95-1.3-.95-2.54-.7-3.79.55-2.64,1.65-5.14,3.74-6.83,4.04-3.44,4.89-7.53,3.84-12.57-1.2-5.79-2.05-11.62-1.75-17.61.15-3.49,1.65-6.09,4.69-7.83,2.49-1.45,5.19-2.44,7.83-3.59.9-.4,1.3-.05,1.3.9-.05,2.39-.15,4.79.15,7.23.8,7.78,4.39,11.97,11.97,13.82,3.74.9,7.53,1.2,11.32.55,5.09-.9,9.23-3.64,12.62-7.43,4.69-5.24,8.18-11.17,9.33-18.26.25-1.6.55-3.24.55-4.84.1-4.44.15-8.88,0-13.32-.2-4.54-1.5-8.83-3.59-12.92-2.69-5.34-6.14-10.13-10.28-14.37-4.79-4.84-10.77-7.58-17.31-9.13-10.53-2.54-20.85-1.95-30.78,2.44-11.77,5.19-19.35,14.07-22.05,26.84-1.2,5.64-2.49,11.22-3.74,16.81-.4,1.75-1,3.44-1.7,5.09-.7,1.65-1.6,3.19-3.14,4.24-.45.3-.85.7-1.2,1.1-1.15,1.3-1.3,2.34-.4,3.79.85,1.3,1.8,2.54,2.79,3.74,5.14,6.34,8.18,13.47,7.68,21.7-.65,10.58-4.79,19.75-12.67,26.94-4.74,4.34-10.63,6.34-16.91,7.13-12.17,1.5-22.5-2.34-31.08-11.02-3.34-3.39-5.34-7.63-6.63-12.17-2.1-7.28-2.34-14.57-.2-21.85,1.1-3.89,2.99-7.33,5.94-10.13,1.2-1.15,2.34-2.29,3.14-3.74,1.3-2.29,1.2-4.64-1-5.99-3.94-2.49-4.74-6.34-5.34-10.38-.8-5.14-1.45-10.33-2.79-15.36-1.6-6.04-3.79-11.87-7.38-17.01-5.49-7.83-13.12-12.17-22.55-13.42-4.19-.55-8.33-1-12.57-.8-6.58.35-13.22.8-19.26,3.84-11.92,6.04-18.86,15.91-21.8,28.73-1.85,8.13-1.6,16.41,0,24.54,1.2,6.19,4.24,11.47,8.63,16.01,1.55,1.65,3.14,3.24,4.89,4.69,2.54,2.15,5.49,3.19,8.78,3.29,3.29.1,6.53.15,9.78-.6,7.23-1.7,11.32-6.39,12.67-13.57.35-1.9.6-3.84,1-5.74.5-2.15,1.1-2.44,3.14-1.6.95.35,1.85.85,2.74,1.25,6.44,2.94,8.23,9.03,7.38,14.67-.35,2.39-1.2,4.64-1.9,6.98-.8,2.69-1.5,5.39-1.65,8.23-.15,3.84,1.15,7.03,3.94,9.58,2.24,2.1,3.69,4.59,4.29,7.58.3,1.55.35,3.09-.9,4.54-1.3-2.44-2.89-4.54-4.34-6.68-3.24-4.74-7.78-6.34-13.27-6.34-2.89,0-5.79,0-8.63-.1-6.63-.25-13.12-1.1-19.5-3.04-1.85-.55-3.74-.95-5.64-1.35-3.29-.75-5.99.25-7.98,2.99-.75,1.1-1.5,2.19-2.1,3.34-4.84,9.53-12.67,15.41-22.75,18.31-11.32,3.24-22.3,2.39-32.72-3.29-8.88-4.84-13.62-12.37-14.77-22.4-.65-5.59-.15-11.02,1.25-16.41,2.84-11.02,10.33-17.61,20.8-21.1,6.14-2.05,12.37-2.05,18.46.45,5.49,2.24,9.38,6.09,10.68,12.07.8,3.74.35,7.43-1.3,10.92-1.05,2.29-2.89,3.79-5.34,4.59-3.89,1.25-7.83,1.05-11.77.7-4.04-.35-8.03-.8-12.07-1.15-1.5-.15-1.6,0-1.55,1.5.05,3.34-.3,6.68.35,10.03,1.3,6.83,3.49,10.58,12.92,12.22,16.46,2.89,32.87-8.68,35.82-26.44,2.29-13.72-1.95-25.29-12.22-34.72-2-1.85-4.04-3.64-6.09-5.44-.75-.65-1-1.3-.85-2.24,1.6-8.23,3.24-16.46,6.93-24.14,6.78-14.02,17.86-22.85,32.67-27.14,7.23-2.1,14.57-3.19,22.1-2.74,9.73.55,19.31,2.24,28.23,6.34,12.52,5.74,21.1,15.41,26.84,27.74,2.69,5.74,4.34,11.82,5.64,17.96.55,2.59,1.3,5.14,2.34,7.58.6,1.35,1.3,2.64,2.1,3.89,4.49,7.08,13.97,6.19,18.36,1.9,2.84-2.79,4.34-6.24,5.24-9.98,1.05-4.24,1.8-8.53,3.24-12.62,4.04-11.27,10.28-21.05,19.65-28.73,5.69-4.64,12.37-7.38,19.31-9.48,8.93-2.69,18.11-4.19,27.39-3.24,24.04,2.49,44.9,15.76,50.98,42.85.9,4.09,1.4,8.28,2.19,12.37.25,1.25-.2,2.05-1.15,2.79-2.44,1.95-4.79,3.99-7.13,5.99-7.23,6.14-10.97,13.92-11.32,23.4-.2,5.14-.05,10.28,1.35,15.26,3.14,11.27,10.68,17.71,21.9,20.1,4.54,1,9.13,1.05,13.72.95,2.1,0,3.89-.8,5.44-2.29,3.64-3.54,5.59-7.83,5.89-12.82.1-2.1.05-4.19,0-6.29,0-1.5-.05-1.6-1.6-1.45-3.64.35-7.28.7-10.87,1.2-2.34.3-4.64.4-6.98.4-4.34,0-7.28-2.49-9.63-5.74-4.04-5.59-3.39-13.47,1.5-18.96,3.44-3.89,7.88-5.99,12.97-6.68,2.24-.3,4.44.4,6.68.8,3.14.55,6.24,1.4,9.18,2.59,6.83,2.79,11.97,7.43,15.21,14.07,2.19,4.44,3.74,9.08,4.24,14.02,1.4,12.77-5.74,26.09-17.61,31.18-6.19,2.64-12.57,4.09-19.26,3.99-9.03-.1-17.51-2.49-24.84-8.08-4.99-3.84-8.63-8.68-10.82-14.62-1.7-4.69-2.69-5.34-7.53-4.79-3.19.35-6.24,1.3-9.28,2.15-4.69,1.3-9.48,1.8-14.27,2.05-6.53.35-13.07.35-19.6.2-1.65,0-2.54.55-3.29,1.95-1.2,2.19-2.49,4.29-3.84,6.39-.65,1.05-1.4,2.05-2.69,2.69l.15.2Zm-53.28-3.69c1.85,0,3.69,0,5.54-.6,7.33-2.19,14.77-10.13,14.37-18.61-.45-8.43-5.44-15.91-13.37-18.71-7.18-2.49-15.81-1.1-21.65,6.04-3.24,3.99-5.24,8.53-4.84,13.72.4,4.94,2.49,9.23,5.79,12.97,2.24,2.59,5.09,3.94,8.43,4.59,1.9.4,3.84.5,5.79.55l-.05.05Z"/>
  <path class="cls-5" d="m172.26,26.74c-.45,3.59-.6,6.88-.25,10.13.9,8.18,3.24,15.96,6.48,23.5,2.14,5.04,4.69,9.83,8.23,14.07,1.25,1.5,2.64,2.84,4.39,3.79,1.55.9,3.19,1.1,4.94.65,1.1-.3,1.65-.8,1.4-1.95-.35-1.7-.65-3.34-1.1-4.99-.7-2.44-1.35-4.99-2.34-7.33-2.79-6.88-3.74-14.07-3.79-21.45-.05-6.39,0-12.77.25-19.16.1-2.94.75-5.84,1.75-8.63,1.25-3.44,2.79-6.73,4.44-10.03.85.35.95,1.1,1.25,1.7,8.48,17.41,19.65,32.97,32.32,47.54,4.14,4.79,8.03,9.73,10.92,15.36,2.34,4.64,3.89,9.48,4.29,14.67.25,3.24-.2,6.39-.9,9.48-1.3,5.54-3.29,10.87-6.14,15.81-.5.9-1.1,1.7-1.65,2.54-2.44,4.09-6.09,5.89-10.87,5.89-12.77,0-25.54.2-38.31-.15-9.18-.25-18.36-.15-27.54-.85-4.19-.3-8.38-.65-12.42-1.8-3.59-1-6.19-3.14-7.78-6.53-2.34-4.99-4.64-10.08-5.19-15.61-.95-9.18,0-18.01,4.64-26.24.75-1.35,1.35-2.79,2.34-3.99.7.45.6,1.1.75,1.7,1,4.39,2.14,8.78,4.24,12.82,1.75,3.44,3.89,6.58,7.08,8.83,3.74,2.64,5.24,1.95,5.94-2.59.9-6.04,1-12.07.8-18.16-.25-7.48-.2-14.97,1.6-22.3,1.6-6.48,4.59-12.17,10.28-16.81l-.05.1Z"/>
  <path class="cls-2" d="m191.02,144.61h-47.34c-.9,0-1.3-.3-1.25-1.25v-5.39c0-1,.5-1.4,1.45-1.4h1.4c8.88,0,17.76-.2,26.59.05,21.85.65,43.7.25,65.6.4h1.4c.7,0,.95.4.95,1.05v5.39c0,.75-.35,1.15-1.1,1.15h-47.69Z"/>
  <path class="cls-2" d="m188.23,203.48c-1.15-2.29-2.29-4.49-3.39-6.68-4.69-9.28-11.02-17.26-18.81-24.09-2.44-2.19-5.09-4.09-8.43-4.69-.55-.1-1.05-.3-1.4-.8.55-.5,1.25-.6,1.95-.6,3.24-.1,6.48-.5,9.78-.55,10.73-.05,21.45-.55,32.18-.35,5.69.1,11.37.25,17.01.4,1.55.05,3.09.3,4.64.6.4.05,1,.2.95.85,0,.55-.4.8-.9.95-.45.1-.9.25-1.35.3-3.24.25-5.94,1.8-8.48,3.59-5.04,3.64-8.98,8.33-12.62,13.32-3.84,5.29-7.48,10.68-10.23,16.66-.15.35-.3.75-.9,1.1h0Z"/>
  <path class="cls-3" d="m188.08,301.15c-1.95,0-3.89-.15-5.79-.55-3.29-.65-6.19-2-8.43-4.59-3.24-3.74-5.39-8.08-5.79-12.97-.4-5.19,1.55-9.73,4.84-13.72,5.84-7.13,14.42-8.58,21.65-6.04,7.93,2.79,12.97,10.28,13.37,18.71.45,8.48-6.98,16.41-14.37,18.61-1.8.55-3.64.6-5.54.6l.05-.05Zm-.55-2.24c1.95.15,3.89,0,5.74-.65,6.78-2.19,13.37-9.68,12.27-17.71-1.15-8.53-7.88-15.66-16.61-16.06-8.48-.4-16.16,5.44-18.16,14.02-.45,1.85-.6,3.69-.3,5.54.65,3.49,2.1,6.63,4.24,9.48,2,2.64,4.59,4.29,7.93,4.84,1.6.25,3.24.45,4.84.55h.05Z"/>
</svg>