<?xml version="1.0" encoding="UTF-8"?>
<svg id="Layer_1" data-name="Layer 1" xmlns="http://www.w3.org/2000/svg" viewBox="0 0 823.08 321.48">
  <defs>
    <style>
      .cls-1 {
        fill: #519283;
      }

      .cls-1, .cls-2, .cls-3, .cls-4, .cls-5 {
        stroke-width: 0px;
      }

      .cls-2 {
        fill: #3459a1;
      }

      .cls-3 {
        fill: #3c7891;
      }

      .cls-4 {
        fill: #336996;
      }

      .cls-5 {
        fill: #ecf0f1;
      }
    </style>
  </defs>
  <path class="cls-1" d="m765.84,236.64c-20.18.04-40.36.14-60.55.14-38.06,0-76.11,0-114.2.07-3.13,0-4.58-.36-4.58-4.12.11-56.35.07-112.74.07-169.1,0-.64.11-1.31.14-1.95,2.59-.07,5.26-.64,7.75-.64,5.83.07,11.3-2.95,17.3-1.49,2.13.53,4.9,1.03,7.07-.75,3.66-2.98,7.39-2.88,11.19.39-1.53,1.28-1.39,2.45.25,3.45,1.49.92,3.16,1.31,4.44-.11,1.31-1.42-.18-2.27-1.07-3.13,4.51-1.92,9.35-.53,13.96-1.39.18-.04.6.36.68.6.78,2.59,3.16,2.45,5.08,3.09,1.67,2.31,3.66,2.74,6,.96,1.03,1.42,2.59.85,3.94.99-.32,2.1.71,3.38,2.63,3.84,1.6.39,3.23.36,3.59-1.88.78.68,1.03,2.06,2.45,1.95-.18,3.23,2.38,4.97,4.58,4.58,3.77-.71,4.62,1.67,6.15,4.02-3.52.5-5.9,1.71-3.16,5.61.39.53.85,1.31.14,1.63-5.61,2.52-1.78,5.01.25,7.43-.57.21-.89.32-1.17.43-2.24.57-4.48,1.49-3.06,4.26,1.17,2.27,3.45,3.77,6.15,2.84,2.91-.99,2.52-2.98.85-4.97-.64-.78-1.35-1.74.25-2.13,5.22-1.39,3.38-3.87.82-6.86,1.88.64,3.59-1.71,5.01.5.46.75,1.71,2.13.75,2.52-5.37,2.27.96,7.92-3.34,10.84-1.17.78,1.35,3.3,3.09,4.26,1.39.75,3.06.78,4.05-.53,1.81-2.31-.28-3.87-1.53-5.51,5.15-.89,5.65-1.42,4.73-5.22-.18-.75-1.67-1.39.25-2.1,1.85-.71,2.27.6,2.98,1.56.43.57,2.06,1.28.21,1.99-2.27.89-2.74,2.24-1.28,4.12,1.24,1.63,2.88,2.81,5.08,2.27s2.17-2.13,1.35-3.84c-.5-1.07.07-1.39.96-1.71,1.31-.46,2.13.04,2.88,1.14.6.85.53,1.42-.28,2.03-.64.46-1.49.92-1.78,1.56-1.03,2.52,1.81,3.73,2.1,5.51.21,1.39-3.8,2.06-2.31,4.94.89,1.67,2.13,2.91,4.09,3.2,1.17.18,2.35.18,3.09-.96,1.67-2.49-1.03-3.77-1.67-5.69,3.87-.43,5.54-2.03,3.16-5.79-.36-.57-.82-1.14.11-1.56.57-.28,1.46-.82,1.71-.11.5,1.28,4.09,1.85.82,4.23-1.85,1.35-.43,3.34.99,4.55,1.35,1.17,3.02,2.45,4.83,1.17,1.46-1.03.92-2.56.14-3.94-.28-.5-1.78-1.1-.21-1.71.71-.28,1.81-.46,2.31-.11.71.5,1.6,2.17,1.49,2.24-5.54,4.37.68,6.36,1.92,9.35-2.06,0-3.84.5-3.27,3.06.57,2.49,2.35,4.02,4.87,4.09,2.91.07,2.06-2.31,2.2-3.94,1.49.14,1.88,1.21,2.1,2.45-.25,1.92.85,3.3,1.85,4.73.11.25.28.43.5.57.14.32.28.68.43.99v1.88c-1.88.25-3.23,1.17-2.52,3.2.99,2.81,2.88,4.65,6.25,3.8.99.36,1.99.71,2.98,1.07.46.85.89,1.67,1.35,2.52l-.11,3.66c-2.56,2.81-1.21,5.01,1.17,6.89,1.99,1.56,3.55.99,4.62-1.24h2.98c-.89,3.34,1.07,5.54,3.13,7.71-1.17.53-1.17,1.56-1.14,2.63-2.24.82-2.52,2.59-1.56,4.3,1.03,1.88,2.13,4.23,5.12,3.41-.85,2.13,3.38,4.55-.36,6.5-1.07-1.03-2.1-3.13-3.8-1.42-1.28,1.31-.28,3.06.89,4.26,1.67,1.78,2.77.92,3.62-.85,2.13,0,2.24,2.66,4.09,3.02,0,1.81.96,3.3,1.74,4.83.04,1.78.07,3.59.11,5.37-2.38,2.45-.43,4.16.99,5.97,0,3.59-.39,7.25,0,10.77,1.39,11.12.04,21.99-2.17,32.83l.28-.04Zm-110.15-132.43c-.46-2.45-2.13-3.87-4.69-3.98-1.95-.07-3.77.99-3.77,3.09,0,2.74,2.17,3.98,4.62,4.09,1.85.07,3.55-.75,3.8-3.2h.04Zm14.71-4.8c-.82-2.38-2.52-4.02-5.29-3.84-1.81.11-3.8,1.1-3.38,3.3.5,2.63,2.59,4.05,5.33,4.05,2.1,0,3.34-1.1,3.34-3.52Zm-3.06,9.27c-.96-2.45-2.66-3.94-5.51-3.73-1.92.14-3.23,1.39-2.88,3.16.46,2.42,2.2,3.91,4.9,3.84,2.06-.07,3.38-.96,3.52-3.3l-.04.04Zm38.09,24.34c-2.17.04-3.3,1.28-3.23,3.02.11,2.49,1.67,4.19,4.23,4.51,1.85.25,3.27-.68,3.27-2.66,0-2.88-1.95-4.19-4.26-4.9v.04Zm-67.72-13.18c-.92-1.95-2.24-3.48-4.8-3.16-2.2.28-3.91,1.46-3.52,3.77.36,2.06,2.13,3.2,4.37,3.13,2.24-.07,3.55-1.31,3.94-3.73Zm70.39,10.59c2.17,0,3.41-1.14,3.27-2.95-.21-2.45-1.81-4.19-4.23-4.65-1.81-.32-3.23.68-3.27,2.66-.04,2.88,1.95,4.19,4.23,4.94Zm-52.73-32.33c2.03-.07,3.62-.85,3.48-2.81-.14-2.52-2.31-3.59-4.48-3.73-1.85-.11-3.91.82-3.55,3.06.36,2.31,2.31,3.41,4.51,3.48h.04Zm49.64,18.44c.85,2.06,2.2,3.98,4.94,4.3,2.03.25,3.09-.89,2.84-2.84-.36-2.77-2.13-4.23-4.87-4.41-1.78-.11-2.59.96-2.91,2.95Zm-23.81-12.33c-.64-2.27-2.13-3.94-4.65-4.05-1.74-.07-3.34.92-3.09,2.95.28,2.38,1.99,3.66,4.33,3.8,1.78.14,3.2-.46,3.45-2.7h-.04Zm-12.86-16.77c-1.74.14-3.3.68-3.34,2.74,0,2.77,2.27,3.23,4.3,3.62,1.81.36,3.48-.57,3.48-2.49,0-2.56-2.35-3.2-4.41-3.87h-.04Zm-20.08,29.46c2.24-.11,3.7-1.03,3.52-3.27-.21-2.27-1.81-3.45-4.02-3.38-1.88.04-3.8.96-3.73,3.06.07,2.49,2.06,3.45,4.23,3.59Zm55.36,27.22c-1.95.07-2.77,1.17-2.59,2.88.25,2.13,1.42,3.77,3.62,3.94,1.95.14,3.13-1.35,2.88-3.16-.28-2.1-1.78-3.41-3.91-3.66h0Zm1.81,16.06c-.57-1.95-1.74-3.7-3.87-3.73-1.88-.04-2.81,1.42-2.56,3.34.28,2.24,1.67,3.55,3.91,3.48,1.74-.07,2.38-1.42,2.56-3.09h-.04Zm-34.79-80.05c-.89.53-3.13-.68-2.98,1.74.14,2.49,2.17,3.62,4.33,4.02,1.53.28,3.3-.39,3.09-2.2-.21-2.13-1.95-3.27-4.41-3.55h-.04Zm32.05,93.52c-.64-1.63-1.46-3.38-3.62-3.27-1.85.07-2.38,1.56-2.17,3.2.25,1.81,1.31,3.06,3.2,3.13,1.95.11,2.31-1.42,2.59-3.09v.04Zm-28.07-94.77c1.42,0,2.77-.46,2.56-2.1-.32-2.24-2.1-3.13-4.19-3.34-1.46-.14-2.74.43-2.59,2.1.18,2.49,2.35,2.77,4.23,3.34Zm-33.97,31.98c-.46-1.74-1.78-2.63-3.48-2.74-1.53-.07-3.06.71-2.95,2.45.11,1.74,1.53,2.91,3.27,2.88,1.53,0,2.7-.92,3.13-2.63l.04.04Zm-7.28,18.51c-.57-1.63-1.53-2.95-3.45-2.74-1.63.14-2.84,1.17-2.52,2.91.28,1.49,1.46,2.7,3.09,2.56,1.49-.11,2.81-.85,2.88-2.74Zm11.51-3.98c1.67-.28,2.88-1.1,2.74-2.84-.14-1.71-1.53-2.56-3.06-2.59-1.63-.04-2.84.92-2.66,2.77.18,1.71,1.39,2.45,2.98,2.66Zm12.26-56.92c-.89-1.99-2.42-2.98-4.55-2.91-1.56.04-3.16.64-2.63,2.52.6,2.1,2.56,2.7,4.62,2.59,1.39-.07,2.45-.57,2.56-2.17v-.04Zm39.9,50.39c-1.46.11-2.27.85-2.2,2.17.11,1.99,1.31,3.27,3.34,3.45,1.35.11,2.17-.82,2.13-2.06-.07-2.06-1.49-3.06-3.23-3.52l-.04-.04Zm22.56-8.99c-1.6.04-2.27.89-2.03,2.17.36,1.95,1.81,3.06,3.62,3.41,1.24.25,2.35-.57,2.17-1.92-.32-2.13-1.81-3.27-3.73-3.66h-.04Zm-17.8,2.84c-.68-1.67-1.95-2.74-3.98-2.84-1.6-.07-2.06.82-1.78,2.13.43,1.95,1.81,3.13,3.8,3.13,1.24,0,2.06-.89,1.95-2.45v.04Zm20.32,9.59c-.68-1.78-1.71-3.27-3.77-3.27-1.35,0-1.95,1.14-1.71,2.45.36,1.78,1.46,2.95,3.34,3.02,1.35.07,2.06-.82,2.13-2.17v-.04Zm-59.05-52.59c-1.17.21-2.52.36-2.49,1.81.07,2.24,1.81,2.84,3.7,2.98,1.17.11,2.56-.11,2.49-1.56-.11-2.13-1.85-2.84-3.66-3.2l-.04-.04Zm55.4,71.67c-.53-1.49-1.35-2.91-3.2-3.02-1.31-.07-2.27.85-2.06,2.1.28,1.81,1.31,3.41,3.41,3.38,1.24,0,1.88-1.07,1.88-2.49l-.04.04Zm-18.62,46.09c-.11-1.6-.96-2.77-2.66-2.84-1.63-.07-2.24,1.07-2.2,2.56.04,1.67.96,2.95,2.56,3.02,1.46.04,2.17-1.21,2.31-2.7v-.04Zm-.96-55.43c-.46-1.56-1.31-2.88-3.3-2.81-1.35.07-2.1,1.03-1.95,2.31.21,1.85,1.46,2.84,3.3,2.88,1.42,0,1.95-.92,1.92-2.38h.04Zm17.41,19.51c-.5-1.46-1.24-2.81-2.88-2.91-1.53-.11-2.35,1.07-2.06,2.56.28,1.53,1.31,2.66,2.95,2.66,1.28,0,1.88-1.03,1.95-2.27l.04-.04Zm.6-23.27c-1.24.11-2.27.57-2.2,2.03.07,1.88,1.28,2.95,3.02,3.27,1.49.25,2.7-.46,2.45-2.13-.28-1.67-1.39-2.88-3.23-3.16h-.04Zm-70.67-63c-.18-1.63-1.31-2.49-2.81-2.74-1.56-.25-3.59-.53-3.87,1.63-.21,1.74,1.6,2.17,2.98,2.59,1.56.5,2.84.18,3.66-1.49h.04Zm-22.24,60.58c-.36-1.67-1.42-2.42-3.09-2.38-1.42,0-2.59.6-2.7,2.13-.07,1.67.99,2.7,2.66,2.7,1.53,0,2.74-.78,3.09-2.45h.04Zm-6.04,7.36c-1.39,0-2.56.53-2.74,2.1-.18,1.63.96,2.49,2.38,2.49s2.66-.71,2.88-2.2c.25-1.67-.99-2.24-2.52-2.38h0Zm82.83-27.15c1.46.07,2.49-.39,2.38-1.88-.18-1.88-1.6-2.77-3.27-3.16-1.31-.32-2.52.32-2.49,1.63,0,2.1,1.63,3.02,3.41,3.41h-.04Zm-5.72,39.3c1.07-.14,2.03-.57,1.88-2.06-.18-1.67-1.21-2.7-2.81-2.84-1.31-.11-2.13.78-2.1,2.1.07,1.71,1.17,2.56,3.02,2.81Zm-34.43-58.52c-.21-1.67-1.39-2.45-2.95-2.52-1.21-.04-2.35.46-2.24,1.92.14,1.53,1.42,2.1,2.74,2.35,1.24.21,2.2-.25,2.45-1.74Zm32.01,66.27c-1.46,0-2.35.82-2.2,2.1.14,1.53,1.07,2.74,2.81,2.77,1.17,0,1.74-.82,1.81-1.85.14-1.74-.85-2.66-2.42-2.98v-.04Zm20.96,10.59c-.36-1.42-1.03-2.74-2.88-2.66-1.14.04-1.85.96-1.67,2.03.25,1.53,1.07,2.81,2.88,2.77,1.17,0,1.63-.92,1.67-2.13Zm-39.26-54.44c-.99.21-2.03.5-1.95,1.74.07,1.49,1.03,2.42,2.49,2.52,1.07.07,1.99-.6,1.95-1.71-.04-1.46-1.07-2.27-2.49-2.56Zm-14.57,5.51c-1.21.21-2.24.89-1.92,2.24.32,1.39,1.49,2.17,2.95,2.03,1.07-.11,1.85-.85,1.71-1.99-.18-1.49-1.17-2.24-2.74-2.27Zm-50.03,26.15c-.36-1.31-1.21-1.85-2.49-1.71-1.24.14-2.17.68-2.1,2.1.07,1.07.71,1.85,1.81,1.78,1.31-.11,2.45-.64,2.74-2.13l.04-.04Zm139.07,17.62c1.03-.04,1.42-.68,1.39-1.6-.07-1.46-.82-2.56-2.27-2.81-1.21-.21-1.85.57-1.67,1.74.21,1.42,1.24,2.2,2.56,2.7v-.04Zm-117.97-92.1c-.21-1.35-1.28-1.78-2.42-1.78s-2.49.32-2.27,1.81c.18,1.28,1.46,1.67,2.63,1.6.96,0,1.92-.32,2.06-1.63h0Z"/>
  <path class="cls-2" d="m586.75,15.45c.07-4.73-1.63-10.7.64-13.82,2.2-3.02,8.56-.92,13.08-.92,72.2-.07,144.37,0,216.57-.14,4.44,0,5.65,1.03,5.65,5.58,0,74.87.11,149.73.39,224.6,0,4.69-1.21,6.47-5.97,6.04-4.23-.39-8.53-.14-12.79-.18.53-8.92,1.67-17.87,1.49-26.79-.28-13.32-1.71-26.54-4.33-39.69-2.56-12.83-7.43-24.91-11.73-37.06-3.73-10.59-10.84-19.97-16.7-29.78-1.07-1.81-2.31-4.09-5.01-4.33-.75-1.24-1.49-2.52-2.2-3.77,1.17-.28,2.31-.6,3.45-.89.57.78,1.1,1.63,1.78,2.31.92.89,2.13,2.13,3.34,1.07,1.35-1.17.04-2.35-.78-3.34-.32-.39-.6-.75-.92-1.14,2.35-4.05.6-5.83-3.52-6.22-1.49-.14-3.62-.43-3.84-1.49-1.03-5.01-5.79-7.39-7.71-11.44-1.53-3.27-3.41-4.76-6.5-5.47,0-2.13-1.95-2.56-3.09-3.7-1.14-3.38-4.87-3.48-7.21-5.4-5.9-4.87-10.87-11.12-18.51-13.61.18-.89.21-1.74-.71-2.24,0-.5,0-1.03-.04-1.53,3.41-2.06-1.92-3.7-.32-5.86.28-.39-.53.14-.53.25.28,1.78-4.58,1.67-1.6,4.37-1.21.32-2.49,1.63-3.66.46-3.09-3.09-7.6-2.7-11.12-4.87-6.64-4.12-13.82-8.03-21-10.23-14.36-4.44-28.92-8.92-44.02-10.34-8.1-.75-16.24-2.31-24.38-1.07-3.8.57-7.25.85-9.98-2.49-.85-1.07-2.38-1.14-3.09-.28-4.19,5.05-9.91,3.09-15.1,3.45v-.04Zm191.13,75.08c-1.1,0-1.85.57-1.63,1.42.53,1.95,1.88,3.41,3.91,3.94.99.28,1.53-.5,1.39-1.42-.36-2.17-1.99-3.16-3.7-3.94h.04Zm7.39,4.33c-.96.14-1.49.46-1.49,1.53.04,2.38,1.92,2.77,3.55,3.2.96.25,1.39-.71,1.14-1.56-.46-1.67-1.63-2.7-3.23-3.16h.04Zm-2.98,5.9c-.82-1.46-1.71-2.95-3.45-3.55-.92-.32-1.67.32-1.49,1.24.28,1.71,1.63,2.7,3.09,3.38.82.36,1.53,0,1.85-1.07h0Z"/>
  <path class="cls-2" d="m291.65,202.04v17.7c0,13.04-5.76,18.44-18.94,17.55-4.09-.28-8.21-.43-12.05-2.06-1.74-.75-3.38-.57-5.22.04-7.99,2.74-16.03,3.09-23.84-.71-1.46-.71-2.35-.32-3.59.25-7.25,3.23-14.5,3.62-21.71-.14-.89-.46-1.6-1.03-2.66-.39-4.33,2.59-9.17,2.06-13.89,2.1-13.47.04-26.93,0-40.36.07-1.53,0-3.41-.96-4.19,1.92-3.94,14.21-9.63,17.91-24.2,16.1-2.1-.25-4.19-.78-6.18-1.49-1.88-.68-4.97-.36-3.7-4.16,1.07-3.16,1.99-5.12,6.11-3.62,3.13,1.14,6.64,1.71,10.16.78,2.42-.64,4.12-1.92,5.12-4.16.75-1.71,1.35-3.7.46-5.22-1.07-1.85-2.98-.32-4.44-.14-10.62,1.46-19.33-5.54-20.4-17.13-.82-8.6.39-17.09,8.17-22.42,8.42-5.72,17.7-4.58,26.93-1.78,2.45.75,2.03,2.63,2.03,4.37,0,7.71.14,15.42-.04,23.1-.11,3.91-.21,6.54,5.37,6.43,5.12-.07,5.83-1.85,5.65-6.22-.36-7.68,0-15.42-.14-23.1-.07-2.77.85-4.05,3.55-4.8,6.93-1.88,13.89-2.45,20.93-1.39,5.9.89,9.31,4.51,10.16,10.41.78,5.4,0,10.8-.21,16.2-.14,3.73-2.84,2.81-4.97,2.84q-6.86.07-6.36-6.68c.25-3.27.43-6.54-.11-9.81-.78-4.65-4.8-6.82-9.17-5.05-1.28.53-1.71,1.39-1.71,2.63,0,7.39.07,14.75,0,22.14,0,2.35,1.17,2.63,3.09,2.63,8.03-.07,16.1,0,24.13,0,4.58,0,6.4-2.31,6.29-6.79-.14-8.03.14-16.06-.14-24.09-.11-3.41,1.14-4.09,4.23-4.05,8.28,0,8.28-.11,8.28,8.31,0,6.89-.07,13.79,0,20.64.07,5.08,2.03,6.64,7.07,6.29,3.2-.21,4.58-1.46,4.51-4.9-.21-8.03-.07-16.06-.07-24.09,0-6.22,0-5.97,6.43-6.29,4.33-.21,6.08.78,5.79,5.54-.46,7.5-.14,15.07-.11,22.6,0,6.4,4.05,8.99,10.13,6.82,2.24-.78,1.81-2.49,1.81-4.02,0-8.85.18-17.7-.07-26.54-.07-3.41.92-4.87,4.37-4.37.96.14,1.99.14,2.95,0,3.77-.57,5.12.78,4.94,4.76-.32,8.17.04,16.38-.18,24.59-.07,2.88.96,4.23,3.62,4.69,1.6.28,3.2.75,4.83.89,7.99.68,9.52-.75,9.52-8.85,0-12.61.18-25.26-.11-37.88-.11-4.26,1.35-5.61,5.29-4.97.64.11,1.31.11,1.95,0,3.7-.53,5.26.68,5.05,4.76-.36,6.72-.11,13.43-.11,20.15h-.07Zm-158.37,12.69v-9.35c0-5.05-2.98-6.89-7.43-4.33-4.8,2.77-5.05,7.78-5.12,12.54-.07,5.33-.89,11.19,4.55,14.67,4.58,2.95,7.96.78,7.99-4.69v-8.85Z"/>
  <path class="cls-2" d="m410.33,228.72c15.81.68,14.75-.57,13.32-12.76-1.71-14.96,8.81-25.05,22.81-22.49,8.24,1.49,12.26,7.5,13.79,14.89,1.95,9.35,1.17,18.65-6.96,25.12-6.18,4.94-13.43,4.83-20.32,1.14-2.24-1.21-3.66-1.78-5.97-.11-3.02,2.2-6.89,1.85-10.48,1.85-13.29.07-26.58.04-39.87,0-2.45,0-4.16-.04-4.69,3.3-1.53,10.2-7.89,15.28-18.41,15.17-3.94-.04-7.92-.32-11.58-1.88-1.63-.71-5.26.14-3.8-3.94,1.03-2.95,1.53-5.51,5.9-3.91,3.27,1.21,6.96,1.81,10.62.78,2.63-.75,4.3-2.35,5.12-4.8,1.35-4.05.14-5.4-3.98-4.73-8.49,1.35-15.17-2.24-18.73-10.09-6.08-13.4-.21-28.89,12.44-32.3,6.61-1.78,13.29-1.07,19.86.89,2.45.71,2.77,2.2,2.77,4.41-.07,8.53.11,17.06-.11,25.55-.07,3.27.96,4.3,4.16,4.12,5.58-.32,11.16-.14,16.7-.46,3.66-.18,6.89-1.6,7.99-5.44,1.14-3.84-1.07-6.64-3.84-8.92-2.13-1.74-4.55-3.23-6.93-4.62-2.84-1.67-5.61-3.41-7.82-5.9-4.05-4.58-5.86-9.81-3.84-15.88,2.03-6.11,6.75-8.88,12.76-10.09,6.29-1.24,12.37-.28,18.41,1.31,2.81.75,3.77,2.17,2.35,4.9-1.07,2.03-.71,5.54-5.01,3.62-3.45-1.53-7.32-1.81-11.09-1.1-5.4,1.03-7.18,5.37-4.02,9.88,1.81,2.59,4.41,4.37,7.07,6,2.24,1.35,4.58,2.59,6.68,4.12,9.27,6.72,10.48,12.37,4.65,22.31l.04.04Zm38.59-13.96c-.07-3.45-.07-6.89-1.46-10.13-.99-2.27-2.74-3.8-5.22-3.84s-4.51,1.31-5.26,3.73c-2.06,6.72-2.06,13.54-.14,20.25.68,2.35,2.42,3.91,5.05,4.02,2.81.11,4.62-1.49,5.69-3.91,1.42-3.23,1.28-6.72,1.35-10.13Zm-88.76.36v-9.77c0-4.9-2.56-6.68-6.89-4.37-5.4,2.84-5.26,8.28-5.33,13.25-.11,5.12-.71,10.8,4.55,14.11,4.41,2.77,7.64.71,7.68-4.44v-8.81.04Z"/>
  <path class="cls-4" d="m768.04,98.99c2.7.25,3.94,2.52,5.01,4.33,5.86,9.77,12.97,19.19,16.7,29.78,4.3,12.15,9.17,24.23,11.73,37.06,2.63,13.15,4.05,26.37,4.33,39.69.18,8.92-.92,17.87-1.49,26.79h-22.63c.6-.75,1.67-1.46,1.78-2.24.78-8.6,2.31-17.23,1.85-25.76-.5-9.03-.75-18.19-2.63-27.18-3.7-17.48-9.06-34.29-17.2-50.28-2.35-4.58-7.25-7.68-7.46-13.4,1.74-.14,2.98-.92,1.99-2.74-1.03-1.88-2.31-4.09-5.15-2.27h-2.88c.43-1.99-.92-3.23-1.95-4.62.04-.68.07-1.31.11-1.99,5.05-2.91.28-4.37-.96-6.32.64-.43,1.28-.82,1.92-1.24,2.03-2.06-.18-3.16-1.03-4.55v-.96c6.57-2.24.07-4.37-.07-6.54,3.8-.07,5.51,1.6,4.41,4.62-.85,2.31.68,3.3,2.1,4.33,1.03.71,2.35,1.74,3.52.6,1.56-1.53-.11-2.66-.99-3.66s-.28-1.24.46-1.67c.92-.53,1.74-.96,2.38.32,1.53,3.2,4.41,3.34,7.39,3.23-1.17.28-2.31.6-3.48.89-1.03.11-2.38-.78-3.02.68-.53,1.24.32,2.17,1.21,2.88,1.24,1.03,2.59,2.24,4.05.21h.04Zm-2.42,17.66c-1.39-.04-2.13.53-1.88,1.74.5,2.17,1.78,3.8,4.09,4.23,1.1.21,1.99-.53,1.74-1.67-.5-2.2-2.06-3.52-3.94-4.26v-.04Zm8.31,4.73c-1.07-.11-1.81.43-1.71,1.28.32,1.99,1.21,3.7,3.34,4.3.99.28,1.67-.46,1.6-1.31-.14-2.1-1.28-3.59-3.27-4.26h.04Zm-16.88-16.56c-.89,0-1.85.07-1.81,1.14.11,1.99,1.46,3.16,3.23,3.77.85.28,1.74-.25,1.74-1.17-.07-2.03-1.42-3.09-3.16-3.73h0Zm26.61,26.58c1.14.11,1.85-.5,1.6-1.35-.43-1.56-1.21-3.06-3.02-3.45-.99-.21-1.63.39-1.46,1.31.28,1.71,1.46,2.81,2.88,3.48Z"/>
  <path class="cls-4" d="m586.75,15.45c5.19-.39,10.91,1.56,15.1-3.45.71-.85,2.2-.78,3.09.28,2.74,3.34,6.18,3.09,9.98,2.49,8.17-1.24,16.27.32,24.38,1.07,15.14,1.42,29.67,5.9,44.02,10.34,7.18,2.24,14.36,6.15,21,10.23,3.48,2.17,8.03,1.78,11.12,4.87,1.17,1.17,2.45-.11,3.66-.46.82.43,1.63.82,2.45,1.24,0,.5,0,1.03.04,1.53-1.42,1.24-2.74,2.59-4.76,2.88,2.06,4.02-2.91,6.93-1.74,10.73.68,2.24-1.17,1.88-1.56,1.35-2.77-3.59-7.96-2.45-10.87-5.79-1.1-1.24-2.91-1.6-4.55-.92-1.81.75-1.03,2.03-.36,3.23.71,1.28-.39,1.28-1.14,1.49-1.85.57-1.92-1.42-2.91-2.1-.5-.36-1.39-1.14.36-1.35,2.74-.32,2.2-1.88.92-3.38-.99-1.14-1.31-1.67.6-1.99,1.6-.25,1.71-1.53.68-2.52-1.28-1.24-2.91-2.59-4.73-1.39-1.42.92-.18,1.95.64,2.77.5.5,1.53.82.82,1.85-1.39,1.07-2.38-.89-3.66-.36-4.51-2.77-10.23-2.91-14.36-6.57-1.74.57-.64,2.66-1.85,3.55-2.31,0-4.51.96-6.57-1.74-1.53-1.99-4.55-2.38-7.04-.36-.46-.04-.92-.11-1.39-.14-.78-4.69-3.45-4.8-6.93-2.81-1.42,1.42-2.7.39-4.02-.18,1.95-1.28,1.92-2.7-.21-3.45-1.88-.68-4.48-2.27-5.15,1.56-.18,1.28-.71,2.2-2.24,1.88-12.05-2.63-24.3-1.56-36.49-1.71-5.54-.07-10.98.82-16.38,1.92V15.49l.04-.04Zm122.87,35.32c.96-1.35,3.55,1.07,3.8-1.53.11-1.17-1.1-1.92-2.27-2.2-.57-.14-1.42-.18-1.85.18-1.67,1.35,1.63,2.24.43,3.62-1.07.21-2.63.14-2.31,1.71.28,1.42,1.56,2.35,3.2,2.52.82.07,1.74.14,1.92-.85.28-1.39-.96-1.85-1.85-2.49-.39-.28-.71-.64-1.03-.96h-.04Zm-62.29-20.5c-1.31.07-2.74.25-2.59,1.67.25,2.45,2.45,2.74,4.33,3.02,1.14.14,2.59-.18,2.45-1.6-.25-2.42-2.45-2.63-4.19-3.09Zm-8.39.89c.82-.21,2.77.68,2.63-1.46-.11-1.74-1.85-2.2-3.3-2.31-1.28-.11-2.88.11-2.84,1.81,0,2.03,1.71,2.03,3.52,1.92v.04Zm21.43,5.29c-.78-1.53-2.2-2.06-3.91-2.06-.78,0-1.92-.07-1.63,1.03.5,1.99,2.2,2.59,4.09,2.59.82,0,1.53-.46,1.46-1.56Zm-28.82-9.74c-1.56-1.78-3.2-2.45-5.22-1.53-.78.36-.75,1.03-.21,1.53,1.6,1.42,3.3,1.85,5.4,0h.04Zm51.59,14.82c.53,1.28,1.56,2.13,3.09,2.38.92.14,2.27.21,2.24-1.03,0-1.71-1.6-2.2-2.98-2.63-.96-.28-1.92-.21-2.35,1.28Zm-62.18-24.91c-.89.28-2.31.36-2.06,1.49.28,1.53,1.92,1.6,3.2,1.6.85,0,2.35.07,1.99-1.35-.32-1.46-1.85-1.63-3.13-1.74Zm14.6,19.61c.82-.5,2.74.64,2.81-1.28.07-1.46-1.56-1.81-2.88-1.85-1.1-.04-2.35-.07-2.49,1.49-.18,1.85,1.35,1.31,2.56,1.67v-.04Zm69.11,13.96c-.36-1.71-1.71-2.2-3.09-2.56-.99-.25-2.17-.07-1.92,1.24.32,1.56,1.78,2.13,3.27,2.42.85.18,1.53-.11,1.74-1.1Z"/>
  <path class="cls-3" d="m752.01,112.78h2.88c-.11,2.38,1.63,3.62,3.16,4.97.18,5.69,5.12,8.81,7.46,13.4,8.14,15.99,13.5,32.8,17.2,50.28,1.88,8.99,2.13,18.12,2.63,27.18.46,8.53-1.07,17.2-1.85,25.76-.07.78-1.14,1.49-1.78,2.24h-15.88c2.2-10.84,3.55-21.71,2.17-32.83-.43-3.55-.04-7.18,0-10.77,4.62-2.84,1.42-4.33-.99-5.97-.04-1.78-.07-3.59-.11-5.37,1.31.46,2.63,2.91,3.98.57,1.17-2.06,0-3.98-1.56-5.61-1.6-1.71-2.91-1.85-4.19.25-1.85-.36-1.95-3.06-4.09-3.02-.25-.64-.5-1.31-.75-1.95,3.73-1.99-.5-4.37.36-6.5,1.95-4.02-.32-6.08-3.55-7.71,0-1.03-.04-2.1,1.14-2.63,2.49.6,4.19.21,3.94-2.95-.28-3.52-3.3-5.58-7.07-4.76h-2.98c-.85-2.98-2.31-5.37-5.79-5.69,0-1.21.07-2.42.11-3.66,1.35,1.56,2.98,2.7,5.01,1.67,1.63-.82,1.31-2.52.71-3.91-.89-2.06-2.49-3.62-4.73-3.8-2.35-.18-2.2,1.88-2.31,3.48-.99-.36-1.99-.71-2.98-1.07.82-3.45-.6-5.65-3.73-7v-1.88c1.63-.11,3.77.96,4.69-1.24.89-2.1-.53-3.62-1.99-4.97-.57-.53-1.14-1.07-1.71-1.6v.07c3.87.14,6.43-.71,3.66-5.22-.82-1.31-.5-1.88.68-2.66,1.31-.89,1.81-.36,2.66.68,1.42,1.74,2.98,3.62,5.72,2.2l-.11.04Zm19.01,56.14c-.53-2.31-1.6-4.55-4.41-5.01-1.92-.32-2.17,1.31-1.85,2.63.57,2.31,1.17,4.83,4.12,5.19,1.78.21,2.1-1.17,2.1-2.81h.04Zm-19.01-41.57c-.6-2.17-1.92-4.05-4.41-4.48-1.49-.25-2.56.96-2.24,2.49.53,2.42,2.1,4.05,4.69,4.37,1.46.18,2.03-.78,1.95-2.38Zm9.42,14.67c-.78-2.31-1.78-4.55-4.73-4.73-1.49-.11-1.95,1.1-1.74,2.31.43,2.63,1.85,4.51,4.65,4.8,1.49.14,1.78-1.07,1.81-2.38h0Zm18.33,45.87c-.32-2.24-1.14-4.41-3.66-5.08-1.49-.39-2.03,1.1-1.74,2.24.53,2.2,1.1,4.65,3.66,5.33,1.6.43,1.6-1.17,1.74-2.49Zm-27.75-68.72c-.6-2.1-2.03-3.66-4.23-4.16-1.35-.32-2.27.68-2.1,1.99.36,2.31,1.92,3.8,4.16,4.3,1.31.28,2.06-.68,2.17-2.17v.04Zm18.37,37.95c-.71-1.78-1.35-3.73-3.77-3.84-1.24-.07-1.78.89-1.56,1.99.39,2.03,1.31,3.77,3.73,3.84,1.21.04,1.78-.64,1.6-1.95v-.04Zm6.57,44.95c1.39-.53,1.92-1.53,1.49-2.74-.6-1.85-1.21-4.09-3.45-4.33-1.42-.18-1.49,1.49-1.31,2.63.36,2.03,1.24,3.7,3.27,4.44h0Zm3.38,5.37c-1.24,2.84-.32,4.76,1.49,6.4.6.53,1.39.21,1.53-.46.53-2.49-.43-4.33-3.02-5.93Zm-20.36-76.07c-.78-.96-.71-3.02-3.09-2.7-1.1.14-2.06.5-1.74,1.67.5,1.85,1.99,2.88,3.8,3.06,1.07.11,1.03-.96,1.03-2.06v.04Z"/>
  <path class="cls-2" d="m56.18,209.78c0-3.94.14-7.85-.04-11.8-.14-2.81.5-4.05,3.73-4.09,8.42-.07,8.39-.25,8.39,8.24v17.7c0,13.11-5.69,18.37-18.94,17.52-1.31-.07-2.7,0-3.91-.43-8.39-2.7-16.52-1.46-25.01.11-10.06,1.85-18.19-5.12-19.9-15.24-2.27-13.57,3.3-24.66,14.28-27.72,6.61-1.85,13.25-1.07,19.83.89,2.66.78,2.52,2.52,2.52,4.55,0,7.85.14,15.74-.07,23.59-.07,2.91,1.14,4.02,3.66,4.73,12.79,3.62,15.49,1.63,15.49-11.62v-6.4l-.04-.04Zm-31.02,5.29c0-3.45-.28-6.89.07-10.3.5-4.8-2.13-5.05-5.65-4.48-3.41.53-4.94,3.02-5.86,5.9-1.24,3.94-1.53,8.03-1.24,12.12.18,2.77.53,5.58,1.99,7.99,1.81,3.02,4.62,3.91,8.03,3.3,3.8-.64,2.52-3.55,2.63-5.76.14-2.95,0-5.9,0-8.85l.04.07Z"/>
  <path class="cls-3" d="m586.75,40.04c5.4-1.1,10.84-1.99,16.38-1.92,12.19.14,24.41-.89,36.49,1.71,1.53.32,2.03-.6,2.24-1.88,1.6,1.17,3.27,2.13,5.37,1.88,1.31.57,2.59,1.63,4.02.18,1.24,3.55,4.05,3.3,6.93,2.81.46.04.92.11,1.39.14.25,2.45,3.27,2.77,3.91,4.94-.82-.07-1.63-.21-2.45-.18-.92,0-2.1-.11-2.45,1.1-.43,1.42.64,2.13,1.67,2.63,1.35.6,2.98,1.03,4.12-.21,1.24-1.39-.64-2.24-.99-3.41,3.34-1.81,5.69-.82,7.32,2.77-1.49.43-4.05.11-3.23,2.81.64,2.17,2.63,2.91,4.65,2.91,1.67,0,2.84-.5,2.52-3.06-.36-2.59,2.17-2.42,3.73-1.63,1.21.6,1.95,2.06,2.91,3.16-1.67-.11-3.84-1.14-4.76.92-.96,2.13,1.35,2.91,2.52,4.12.18.18.14.57.21.85-1.63.18-4.09-.92-4.37,1.63-.25,1.99,1.67,2.98,3.55,3.3,1.1.18,2.42.36,2.91-1.03.75-2.06-1.53-2.59-2.17-3.94,1.63-.68,4.23.78,4.97-1.56.71-2.2-1.53-3.16-2.98-4.3.64.04,1.31.14,1.95.11,1.81-.11,3.73-.39,4.58,1.74.89,2.24-1.71,1.03-2.24,2.1-.39.82-.71,1.67-.25,2.27,1.28,1.71.99,2.7-.92,3.59-.99.46-.99,1.46-.75,2.56.18.82,2.35,1.6.39,2.42-1.24.5-2.77,1.85-4.23-.39-1.81-2.74-4.41-3.87-7.53-1.56-1.42.11-1.67-1.24-2.45-1.95-1.56-2.24-3.66-2.88-6.22-1.95-1.35-.14-2.91.43-3.94-.99-2.66-3.84-3.91-4.05-6-.96-1.92-.64-4.33-.5-5.08-3.09-.07-.25-.5-.64-.68-.6-4.62.85-9.49-.53-13.96,1.39-1.21-.07-2.42-.14-3.62-.21-3.8-3.27-7.53-3.38-11.19-.39-2.17,1.78-4.9,1.28-7.07.75-6-1.46-11.48,1.56-17.3,1.49-2.49,0-5.15.57-7.75.64v-21.67h-.14Zm82.22,21.5c1.1,0,2.24-.43,2.2-1.42-.07-1.71-1.53-2.31-3.06-2.38-1.03-.07-2.06.21-1.85,1.53.21,1.49,1.53,1.88,2.7,2.27h0Z"/>
  <path class="cls-2" d="m399.18,300.99c0-5.4.14-10.8-.07-16.2-.11-2.63.89-3.87,3.3-4.48,8.53-2.06,17.06-3.52,25.44.43,1.95.92,3.38.18,5.05-.43,4.97-1.85,10.06-2.74,15.39-1.46,5.47,1.31,9.24,5.44,9.31,11.05.11,8.99-.07,18.01.07,27,.04,2.7-.64,3.62-3.52,3.62-8.39.07-8.39.21-8.39-8.07,0-6.72-.04-13.43,0-20.15.04-3.87-1.31-6.4-5.61-6.32-4.16.07-6,1.81-5.79,6.4.39,7.99,0,16.06.18,24.06.07,3.23-.92,4.51-4.16,4.05-1.28-.18-2.63-.18-3.91,0-3.2.5-3.8-.99-3.73-3.87.18-7.85-.18-15.74.14-23.56.25-6.75-4.97-7.89-10.09-6.61-2.31.57-1.88,2.35-1.88,3.91,0,8.53-.18,17.02.07,25.55.11,3.62-.82,5.19-4.62,4.62-1.46-.21-2.95-.14-4.41,0-2.2.21-2.84-.75-2.81-2.84.11-5.58,0-11.12,0-16.7h.04Z"/>
  <path class="cls-2" d="m276.59,320.5c4.73-14.5,9.27-28.46,13.82-42.43,1.28-3.87,2.84-7.68,3.73-11.65.92-4.12,3.09-4.94,7.11-5.26,5.93-.5,8.03,1.88,9.59,7.18,4.76,16.13,9.98,32.12,15.21,48.11,1.07,3.23.78,4.58-2.88,4.05-.32-.04-.64,0-.99,0-7.6,0-7.85.07-9.56-7.25-1.03-4.48-3.06-6.5-7.68-5.58-.64.14-1.31,0-1.95,0-10.48,0-10.62-.04-13.61,9.81-.71,2.38-1.71,3.16-4.05,3.06-2.74-.14-5.51,0-8.78,0l.04-.04Zm32.19-20.86c-2.24-8.56-4.41-16.84-6.61-25.09-.28,0-.6.07-.89.07-2.31,8.24-4.58,16.49-6.96,25.01h14.46,0Z"/>
  <path class="cls-2" d="m238.68,289.48c0,8.35-.14,16.7.07,25.05.07,3.09-1.07,4.37-3.91,5.01-4.33,1.03-8.71,1.74-13.11,1.78-14.92,0-23.77-13.72-18.69-28.89,3.23-9.7,9.13-13.93,19.58-13.4,3.41.18,4.73-.57,4.41-4.16-.32-3.73.07-7.53-.11-11.3-.14-2.63.82-3.27,3.34-3.3,8.42-.18,8.42-.28,8.42,8.1v21.11h0Zm-11.73,9.91v-8.85c0-5.29-2.59-7-7.25-4.55-4.94,2.59-5.33,7.5-5.4,12.29-.11,5.4-.5,11.12,4.97,14.5,4.44,2.74,7.68.64,7.68-4.58v-8.85.04Z"/>
  <path class="cls-2" d="m90.79,320.64c-3.98.07-7.82-.71-11.55-1.95-3.84-1.28-4.87-6.4-1.88-9.31,1.03-.99,1.78-.07,2.63.11,3.55.6,7.04,1.67,10.59,1.88,3.94.25,7.75-.89,9.17-5.12,1.39-4.19-1.39-6.82-4.62-8.78-2.77-1.71-5.76-3.13-8.67-4.62-9.31-4.76-12.86-11.12-10.98-19.58,1.6-7.21,7.78-11.62,17.48-12.19,3.91-.25,7.82.11,11.65,1.24,5.97,1.81,5.9,1.88,3.55,7.64-.92,2.27-1.88,2.59-4.02,1.78-3.41-1.24-7-1.78-10.62-1.39-3.02.32-5.37,1.74-6.18,4.76-.82,3.02.39,5.51,3.06,7.11,3.52,2.1,7.14,4.02,10.66,6.04,9.49,5.47,12.97,12.15,10.66,20.32-2.06,7.28-9.59,11.94-19.44,12.05h-1.49,0Z"/>
  <path class="cls-2" d="m391.18,300.74c0,5.4-.14,10.8.07,16.2.11,2.84-.96,4.16-3.62,3.48-2.74-.71-6.64,2.45-8.21-2.31-.75.28-1.53.5-2.24.85-11.41,5.33-21.11.57-22.85-11.73-1.31-9.06-.07-17.94,7.64-24.13,8.28-6.64,17.73-5.47,27.22-2.95,2.17.57,1.99,2.27,1.99,3.91v16.7-.04Zm-11.62-2.77c0-2.95-.21-5.9.07-8.81.43-4.19-1.88-4.65-5.08-4.05-1.99.36-3.62,1.46-4.9,2.98-4.09,4.76-4.8,16.63-1.35,21.85,2.06,3.13,4.97,3.3,8.21,2.52,3.2-.75,3.2-3.16,3.13-5.72-.11-2.91,0-5.86,0-8.81l-.07.04Z"/>
  <path class="cls-2" d="m154.11,300.6c0,5.58-.07,11.16.04,16.7.04,2.2-.53,3.73-2.95,3.09-2.98-.82-6.79,2.31-9.03-2.06-.46-.89-1.35.25-1.99.53-12.65,5.69-22.81-.43-23.34-14.5-.85-22.39,15.49-30.2,35.14-24.3,2.13.64,2.13,2.1,2.13,3.8v16.74Zm-11.8-2.63c0-3.09-.21-6.22.07-9.31.25-3.23-1.21-4.02-4.05-3.66-1.85.21-3.45.96-4.83,2.2-5.01,4.44-6.11,18.12-1.85,23.34,2.24,2.74,5.05,2.59,8.03,1.78,3.06-.82,2.66-3.23,2.63-5.51v-8.85Z"/>
  <path class="cls-2" d="m196.39,298.83c0,5.26-.18,10.48.07,15.71.14,2.95-1.1,4.19-3.66,4.73-6.89,1.46-13.82,2.7-20.93,1.39-6.04-1.14-9.56-4.33-9.81-10.45-.39-9.49-.18-19.01-.25-28.5,0-1.78.53-2.45,2.49-2.66,9.1-.85,9.24-.82,9.24,8.28,0,6.4-.07,12.79,0,19.15.07,5.37,2.66,7.43,7.78,6.72,2.66-.39,3.41-1.63,3.38-4.23-.14-8.53.11-17.06-.14-25.55-.11-3.38.75-4.9,4.3-4.33,1.28.21,2.63.14,3.94,0,2.7-.32,3.8.6,3.7,3.52-.21,5.4-.07,10.8-.07,16.2l-.04.04Z"/>
  <path class="cls-2" d="m493.94,299.68c.04-15.85,11.19-25.16,24.52-20.43,8.95,3.16,14.07,15.49,11.19,27-2.81,11.33-11.02,16.59-22.35,14.25-8.28-1.71-13.4-9.66-13.36-20.82h0Zm11.76.04c.14,3.09-.11,6.18,1.07,9.17.92,2.35,2.38,3.87,5.01,3.94,2.84.11,4.76-1.46,5.54-3.98,1.99-6.36,1.99-12.86-.18-19.19-.78-2.27-2.38-3.84-5.08-3.84-2.95,0-4.33,1.78-5.29,4.23-1.21,3.13-.92,6.43-1.07,9.66h0Z"/>
  <path class="cls-2" d="m491.92,217.63c0-6.54.18-13.11-.07-19.65-.14-3.34,1.03-4.48,4.16-4.05h.5c4.93-.05,7.39,2.32,7.39,7.11,0,10.8-.32,21.64.07,32.44.68,18.58-10.13,23.17-26.08,20.72-1.6-.25-3.16-.82-4.73-1.31-2.1-.68-4.8-.75-3.2-4.41,1.1-2.49,1.42-4.97,5.26-3.41,2.38.96,5.12,1.24,7.71,1.31,5.97.21,8.95-2.88,8.99-9.1.04-6.54,0-13.11,0-19.65h0Z"/>
  <path class="cls-2" d="m315.6,206.58c0,8.49-.14,17.02.07,25.51.11,3.45-.96,4.44-4.37,4.41-8.1-.14-8.1.04-8.1-7.96,0-15.53.14-31.06-.11-46.58-.07-3.91,1.03-5.44,4.9-4.83.78.14,1.63.14,2.45,0,3.94-.6,5.44.71,5.26,4.97-.36,8.17-.11,16.34-.11,24.52v-.04Z"/>
  <path class="cls-2" d="m79.35,237.07c-1.31,0-2.66.25-3.91-.07-1.71-.39-4.9,1.6-4.83-1.88.07-2.84-.21-6.4,5.08-6.25,12.65.25,15.95-3.8,14.6-16.63-.92-9.03-3.55-11.26-12.65-10.2-3.55.43-2.45-2.35-3.06-3.77-.75-1.81-.89-3.38,2.03-4.3,12.69-4.02,23.77,2.27,26.05,15.31.71,4.02.85,8.14-.18,12.15-3.02,11.62-8.92,15.6-23.1,15.63h-.04Z"/>
  <path class="cls-2" d="m526.24,177.13c-2.17,3.55-1.71,6.43.28,9.2,1.1,1.53,1.39,3.38,1.1,5.19-2.03,13.54-.92,27.15-.92,40.72,0,6.4-4.19,3.73-7,4.16-3.34.53-5.44,0-5.19-4.48.75-13.4-.89-26.86,1.03-40.22.36-2.38-.89-4.41-1.88-6.5-2.45-5.22-.6-8.03,5.19-8.07h7.39Z"/>
  <path class="cls-2" d="m468.39,206.8c0-8.53.14-17.02-.07-25.55-.07-3.13.71-4.26,4.05-4.19,7.99.11,7.99-.07,7.99,8.07,0,15.56-.11,31.13.07,46.65.04,3.59-.78,5.22-4.58,4.65-1.28-.21-2.63-.14-3.94,0-2.81.32-3.62-.82-3.59-3.59.18-8.67.07-17.34.07-26.05h0Z"/>
  <path class="cls-2" d="m474.97,300.21c.04,9.59,3.41,12.79,13.29,12.37,2.66-.11,2.42,1.74,2.7,3.13.32,1.56,1.21,3.23-1.46,4.3-10.38,4.12-21.5-.6-25.19-11.12-2.59-7.28-2.06-14.46,1.56-21.32,4.37-8.24,14.6-11.8,23.2-8.31,3.06,1.24,1.99,3.27,1.39,5.22-.36,1.07.39,2.91-2.35,2.59-10.02-1.17-13.25,2.24-13.22,13.15h.07Z"/>
  <path class="cls-2" d="m331.52,300.64c0-5.26.21-10.48-.07-15.71-.18-3.13,1.07-4.37,3.91-4.97,5.79-1.28,11.55-2.38,17.48-.99,1.46.36,3.38.18,2.38,2.45-.82,1.85-.07,4.94-3.34,5.05-8.53.21-8.53.18-8.53,8.39,0,7.21-.14,14.43.07,21.6.11,3.16-.75,4.62-4.05,4.05h-.5c-4.9.05-7.36-2.31-7.36-7.07v-12.79Z"/>
  <path class="cls-2" d="m247.67,299.54c0-5.54.18-11.12-.07-16.66-.14-3.06.82-3.84,3.84-3.84,7.96.07,7.96-.11,7.96,8.03,0,9.81-.14,19.61.07,29.42.07,3.3-.99,4.44-4.16,4.02-1.28-.18-2.63-.18-3.91,0-3.09.46-3.91-.82-3.8-3.8.21-5.72.07-11.44.07-17.16h0Z"/>
  <path class="cls-2" d="m259.78,266.6c-.25,4.51-2.84,6.36-6.43,6.4-3.62,0-6.47-1.95-6.47-5.86s2.56-5.79,6.4-5.86c3.87-.04,5.9,2.06,6.5,5.33h0Z"/>
  <path class="cls-2" d="m14.75,187.29c-3.48-.57-6.22-2.24-6-5.93.21-3.59,2.91-5.54,6.4-5.37,3.41.18,6.11,2.1,5.93,5.83-.18,3.66-2.98,5.15-6.32,5.47Z"/>
  <path class="cls-2" d="m30.53,175.85c3.45.36,6.22,1.81,6.32,5.54.14,3.77-2.52,5.69-6,5.76-3.48.11-6.25-1.74-6.36-5.44-.14-3.7,2.59-5.37,6.04-5.9v.04Z"/>
  <path class="cls-2" d="m62.58,254.8c-3.66-.21-6.22-1.88-6.22-5.54s2.45-5.58,6.04-5.58,6.08,1.78,6.11,5.47c.04,3.73-2.52,5.33-5.9,5.65h-.04Z"/>
  <path class="cls-2" d="m46.52,243.57c3.48.28,6.15,1.78,6.25,5.51.11,3.7-2.38,5.58-5.9,5.69-3.55.11-6.11-1.67-6.22-5.37-.11-3.73,2.45-5.37,5.9-5.83h-.04Z"/>
  <path class="cls-5" d="m672.07,67.62c3.09-2.31,5.69-1.17,7.53,1.56,1.46,2.2,2.98.89,4.23.39,1.95-.82-.21-1.6-.39-2.42-.25-1.1-.25-2.1.75-2.56,1.92-.89,2.2-1.88.92-3.59-.46-.6-.14-1.46.25-2.27.5-1.07,3.13.14,2.24-2.1-.85-2.13-2.77-1.85-4.58-1.74-.64,0-1.31-.07-1.95-.11l.11.07c-.96-1.1-1.71-2.56-2.91-3.16-1.53-.78-4.09-.96-3.73,1.63.36,2.56-.85,3.02-2.52,3.06-1.99,0-4.02-.75-4.65-2.91-.78-2.7,1.74-2.38,3.23-2.81-1.63-3.59-3.98-4.58-7.32-2.77l.07.07c-.6-2.2-3.66-2.49-3.91-4.94,2.45-2.03,5.51-1.63,7.04.36,2.06,2.7,4.26,1.74,6.57,1.74,5.19,3.77,10.98,6.11,17.23,7.6-.99-1.56-1.74-2.91-1.03-4.58,1.28-.53,2.31,1.42,3.66.36.68-1.03-.32-1.31-.82-1.85-.82-.82-2.03-1.85-.64-2.77,1.81-1.21,3.45.18,4.73,1.39,1.03.99.92,2.27-.68,2.52-1.95.28-1.6.82-.6,1.99,1.28,1.49,1.81,3.06-.92,3.38-1.74.21-.85.99-.36,1.35.99.68,1.07,2.66,2.91,2.1.71-.21,1.85-.21,1.14-1.49-.68-1.21-1.42-2.49.36-3.23,1.63-.68,3.48-.32,4.55.92,2.88,3.34,8.07,2.24,10.87,5.79.43.53,2.27.89,1.56-1.35-1.17-3.8,3.84-6.68,1.74-10.73,1.99-.28,3.34-1.63,4.76-2.88.96.53.89,1.39.71,2.24-.46.04-.96.11-1.42.14,2.42,2.31-2.03,5.19.64,7.46-1.81,1.95.92,4.02.07,5.65-2.13,3.98-.07,4.05,2.91,3.55l-.07-.07c4.51,3.84,10.38,5.05,15.14,8.53.96-2.24-2.56-3.3-.46-4.69,1.39-.89,3.59.25,3.98,1.67.68,2.63,1.78,6.64.5,7.89-2.06,2.06.14,2.52.5,2.77,2.95,2.03,6.36,4.16,9.45,4.9,4.94,1.21,8.42,4.51,12.61,6.57,2.13,1.07,3.87,2.98,6.61,2.95.28.39.6.75.92,1.14.82.99,2.1,2.17.78,3.34-1.24,1.07-2.42-.18-3.34-1.07-.71-.68-1.21-1.53-1.78-2.31-2.98.11-5.86,0-7.39-3.23-.6-1.31-1.46-.85-2.38-.32-.78.46-1.39.68-.46,1.67.89.99,2.56,2.13.99,3.66-1.17,1.14-2.49.14-3.52-.6-1.42-1.03-2.95-2.03-2.1-4.33,1.1-3.02-.6-4.69-4.41-4.62.14,2.17,6.64,4.26.07,6.54-.32,0-.64.04-.99.07l.07.07c-1.03-1.39-2.17-2.7-3.09-4.12-.82-1.28-1.53-.5-2.45-.18-1.6.53-1.03,1.21-.32,2.03.89,1.07,1.63,2.81.39,3.45-2.56,1.28-.71,1.95-.18,3.23,1.21,3.02,3.84,1.42,5.69,2.2,1.21,1.99,6,3.41.96,6.32-1.74-.6-3.16-1.67-4.16-3.23-.82-1.28-1.67-1.14-2.81-.39-1.39.92-.04,1.49.14,2.27.85,4.05,4.55,2.1,6.72,3.34,1.03,1.39,2.38,2.63,1.95,4.62-2.74,1.42-4.3-.46-5.72-2.2-.85-1.03-1.35-1.56-2.66-.68-1.17.78-1.49,1.35-.68,2.66,2.81,4.48.21,5.37-3.7,5.22-.6-2.7-7.18-4.37-1.24-8.24,1.31-.85-.85-1.6-1.24-2.49-.6-1.35-1.71-1.42-2.77-.78-1.53.92-.04,1.67.39,2.24,2.24,2.91.53,4.3-1.99,5.4-.28.11-.57.18-.85.28.25.32.5.64.71.96.43.57.82,1.14,1.24,1.71-.14,1.67.71,4.05-2.2,3.94-2.52-.07-4.3-1.56-4.87-4.09-.57-2.56,1.21-3.02,3.27-3.06-1.28-2.98-7.46-4.94-1.92-9.35.07-.07-.78-1.74-1.49-2.24-.53-.36-1.63-.18-2.31.11-1.56.64-.07,1.21.21,1.71.78,1.39,1.31,2.91-.14,3.94-1.81,1.28-3.45,0-4.83-1.17-1.42-1.21-2.84-3.2-.99-4.55,3.27-2.38-.32-2.95-.82-4.23-.28-.71-1.14-.18-1.71.11-.92.43-.46,1.03-.11,1.56,2.42,3.77.75,5.37-3.16,5.79.64,1.92,3.34,3.2,1.67,5.69-.75,1.14-1.92,1.1-3.09.96-1.95-.28-3.2-1.49-4.09-3.2-1.49-2.84,2.52-3.55,2.31-4.94-.25-1.78-3.13-2.98-2.1-5.51.28-.64,1.14-1.1,1.78-1.56.82-.6.85-1.17.28-2.03-.75-1.07-1.56-1.6-2.88-1.14-.89.32-1.46.6-.96,1.71.82,1.71.85,3.3-1.35,3.84-2.17.53-3.8-.68-5.08-2.27-1.46-1.88-1.03-3.23,1.28-4.12,1.81-.71.18-1.42-.21-1.99-.71-.96-1.17-2.27-2.98-1.56-1.92.71-.43,1.35-.25,2.1.92,3.8.46,4.3-4.73,5.22,1.24,1.67,3.34,3.2,1.53,5.51-1.03,1.31-2.66,1.28-4.05.53-1.74-.96-4.26-3.45-3.09-4.26,4.3-2.91-2.03-8.56,3.34-10.84.92-.39-.28-1.78-.75-2.52-1.42-2.2-3.13.14-5.01-.5,2.56,2.98,4.41,5.47-.82,6.86-1.6.43-.89,1.35-.25,2.13,1.67,2.03,2.06,4.02-.85,4.97-2.7.92-4.97-.57-6.15-2.84-1.42-2.81.82-3.7,3.06-4.26.32-.07.6-.21,1.17-.43-2.03-2.42-5.86-4.9-.25-7.43.71-.32.25-1.1-.14-1.63-2.74-3.91-.36-5.12,3.16-5.61-1.53-2.35-2.38-4.73-6.15-4.02-2.2.43-4.76-1.35-4.58-4.58l-.11.04Zm18.41,8.95c-1.39.14-2.74.43-3.8,1.35,1.28,2.56,2.77,4.16,5.51,1.99-.6-1.1-1.21-2.24-1.81-3.38.21-.57.32-1.53.71-1.71,2.45-1.07,1.85-2.74.85-4.26-1.28-1.99-2.27.64-4.37.14,2.45,1.81,3.09,3.7,2.91,5.86h0Zm-1.03-11.3c2.1,0,1.24,4.62,4.65,2.63.71-.43,1.31-.46.75-1.67-1.35-2.81-3.41-1.28-5.37-.96h-.04Zm50.78,28.89c-2.27-.46-2.06-3.38-4.58-2.52-.5.18-1.03.6-.6,1.49.99,2.13,2.56,1.92,5.22.99l-.04.04Zm7.75-8.63c-1.63-.68-1.49-3.91-4.3-2.81-1.03.39-.39,1.1-.11,1.46,1.07,1.24,1.42,4.19,4.41,1.35Z"/>
  <path class="cls-5" d="m655.68,104.21c-.28,2.45-1.95,3.27-3.8,3.2-2.45-.11-4.62-1.35-4.62-4.09,0-2.06,1.81-3.13,3.77-3.09,2.52.07,4.19,1.53,4.69,3.98h-.04Z"/>
  <path class="cls-5" d="m670.4,99.45c0,2.45-1.24,3.52-3.34,3.52-2.74,0-4.83-1.42-5.33-4.05-.43-2.2,1.56-3.2,3.38-3.3,2.77-.18,4.48,1.46,5.29,3.84Z"/>
  <path class="cls-5" d="m667.34,108.73c-.14,2.31-1.46,3.23-3.52,3.3-2.66.07-4.44-1.42-4.9-3.84-.36-1.78.99-3.02,2.88-3.16,2.81-.21,4.51,1.28,5.51,3.73l.04-.04Z"/>
  <path class="cls-5" d="m705.43,133.07c2.31.71,4.3,1.99,4.26,4.9,0,1.99-1.42,2.91-3.27,2.66-2.56-.32-4.12-2.03-4.23-4.51-.07-1.74,1.07-2.98,3.23-3.02v-.04Z"/>
  <path class="cls-5" d="m637.71,119.92c-.39,2.38-1.71,3.62-3.94,3.73-2.2.07-4.02-1.03-4.37-3.13-.39-2.27,1.31-3.48,3.52-3.77,2.52-.32,3.87,1.21,4.8,3.16Z"/>
  <path class="cls-5" d="m755.07,147.32c3.77-.82,6.79,1.24,7.07,4.76.25,3.13-1.46,3.52-3.94,2.95-2.06-2.17-4.02-4.33-3.13-7.71Z"/>
  <path class="cls-5" d="m708.1,130.51c-2.24-.78-4.26-2.06-4.23-4.94,0-1.99,1.46-2.98,3.27-2.66,2.45.46,4.02,2.2,4.23,4.65.14,1.81-1.1,2.95-3.27,2.95Z"/>
  <path class="cls-5" d="m745.05,135.45c.14-1.6,0-3.66,2.31-3.48,2.24.18,3.84,1.74,4.73,3.8.6,1.39.92,3.09-.71,3.91-2.03,1.03-3.66-.11-5.01-1.67-.46-.85-.89-1.67-1.35-2.52l.04-.04Z"/>
  <path class="cls-5" d="m655.33,98.17c-2.2-.07-4.16-1.14-4.51-3.48-.36-2.24,1.71-3.16,3.55-3.06,2.17.14,4.33,1.17,4.48,3.73.11,1.95-1.46,2.7-3.48,2.81h-.04Z"/>
  <path class="cls-5" d="m704.97,116.62c.28-2.03,1.14-3.09,2.91-2.95,2.77.18,4.55,1.63,4.87,4.41.25,1.99-.82,3.13-2.84,2.84-2.74-.36-4.09-2.24-4.94-4.3Z"/>
  <path class="cls-3" d="m733.5,116.79c-.43-.57-.82-1.14-1.24-1.71.04-.39.11-.82.14-1.21,2.52-1.1,4.23-2.45,1.99-5.4-.43-.57-1.92-1.31-.39-2.24,1.07-.64,2.17-.57,2.77.78.39.89,2.56,1.63,1.24,2.49-5.93,3.87.64,5.58,1.24,8.24l.04-.07c-1.42.04-2.66.57-3.73,1.53-.18-1.24-.57-2.31-2.1-2.45l.04.04Z"/>
  <path class="cls-5" d="m681.16,104.32c-.25,2.24-1.63,2.84-3.45,2.7-2.35-.18-4.05-1.46-4.33-3.8-.25-2.03,1.39-2.98,3.09-2.95,2.56.07,4.02,1.74,4.65,4.05h.04Z"/>
  <path class="cls-5" d="m668.3,87.55c2.06.68,4.41,1.28,4.41,3.87,0,1.88-1.63,2.81-3.48,2.49-1.99-.39-4.33-.85-4.3-3.62,0-2.06,1.6-2.59,3.34-2.74h.04Z"/>
  <path class="cls-5" d="m648.22,117.01c-2.17-.14-4.16-1.14-4.23-3.59-.07-2.1,1.85-3.02,3.73-3.06,2.17-.07,3.8,1.1,4.02,3.38.21,2.24-1.24,3.16-3.52,3.27Z"/>
  <path class="cls-5" d="m735.56,119.24c1.07-.96,2.31-1.46,3.73-1.53.57.53,1.14,1.07,1.71,1.6,1.49,1.35,2.88,2.88,1.99,4.97-.92,2.2-3.02,1.1-4.69,1.24-.14-.32-.28-.68-.43-.99,0-.36-.14-.53-.5-.57-.99-1.42-2.06-2.81-1.85-4.73h.04Z"/>
  <path class="cls-5" d="m703.58,144.19c2.13.25,3.62,1.56,3.91,3.66.25,1.81-.92,3.3-2.88,3.16-2.2-.18-3.41-1.85-3.62-3.94-.18-1.67.64-2.81,2.59-2.88h0Z"/>
  <path class="cls-5" d="m705.39,160.25c-.14,1.67-.82,3.06-2.56,3.09-2.24.07-3.62-1.24-3.91-3.48-.25-1.92.68-3.41,2.56-3.34,2.17.07,3.3,1.78,3.87,3.73h.04Z"/>
  <path class="cls-5" d="m746.29,141.59c3.48.32,4.94,2.7,5.79,5.69-1.07,2.24-2.63,2.81-4.62,1.24-2.42-1.92-3.73-4.09-1.17-6.89v-.04Z"/>
  <path class="cls-5" d="m757.02,157.62c3.23,1.63,5.51,3.7,3.55,7.71-2.98.82-4.09-1.49-5.12-3.41-.92-1.71-.68-3.52,1.56-4.3Z"/>
  <path class="cls-5" d="m670.61,80.19c2.49.28,4.19,1.42,4.41,3.55.18,1.81-1.56,2.52-3.09,2.2-2.17-.43-4.19-1.56-4.33-4.02-.14-2.42,2.13-1.21,2.98-1.74h.04Z"/>
  <path class="cls-5" d="m765.09,176.88c1.28-2.1,2.59-1.92,4.19-.25,1.56,1.67,2.74,3.59,1.56,5.61-1.35,2.35-2.66-.07-3.98-.57-.82-1.53-1.78-3.02-1.74-4.83l-.04.04Z"/>
  <path class="cls-5" d="m738.33,127.42c3.13,1.31,4.55,3.55,3.73,7-3.38.85-5.26-.99-6.25-3.8-.71-1.99.64-2.91,2.52-3.2h0Z"/>
  <path class="cls-5" d="m702.62,173.72c-.28,1.67-.68,3.2-2.59,3.09-1.88-.11-2.95-1.35-3.2-3.13-.21-1.63.32-3.13,2.17-3.2,2.17-.11,2.98,1.63,3.62,3.27v-.04Z"/>
  <path class="cls-5" d="m674.59,78.95c-1.88-.57-4.05-.85-4.23-3.34-.14-1.67,1.17-2.2,2.59-2.1,2.1.18,3.87,1.1,4.19,3.34.25,1.67-1.14,2.1-2.56,2.1Z"/>
  <path class="cls-5" d="m640.62,110.93c-.43,1.67-1.6,2.63-3.13,2.63-1.78,0-3.16-1.14-3.27-2.88s1.42-2.52,2.95-2.45c1.67.07,3.02.99,3.48,2.74l-.04-.04Z"/>
  <path class="cls-5" d="m633.33,129.48c-.07,1.88-1.39,2.63-2.88,2.74-1.63.11-2.81-1.07-3.09-2.56-.32-1.71.89-2.74,2.52-2.91,1.92-.18,2.88,1.1,3.45,2.74Z"/>
  <path class="cls-5" d="m644.81,125.5c-1.56-.25-2.81-.96-2.98-2.66-.18-1.81.99-2.81,2.66-2.77,1.53.04,2.91.89,3.06,2.59.14,1.74-1.1,2.56-2.74,2.84Z"/>
  <path class="cls-5" d="m657.07,68.58c-.07,1.63-1.17,2.1-2.56,2.17-2.1.11-4.02-.5-4.62-2.59-.53-1.85,1.07-2.45,2.63-2.52,2.13-.07,3.66.96,4.55,2.91v.04Z"/>
  <path class="cls-5" d="m696.97,118.96c1.74.46,3.16,1.46,3.23,3.52.04,1.28-.78,2.2-2.13,2.06-2.03-.18-3.23-1.46-3.34-3.45-.07-1.28.75-2.06,2.2-2.17l.04.04Z"/>
  <path class="cls-5" d="m719.57,109.97c1.92.39,3.45,1.56,3.73,3.66.21,1.35-.92,2.17-2.17,1.92-1.81-.36-3.27-1.42-3.62-3.41-.21-1.31.46-2.13,2.03-2.17h.04Z"/>
  <path class="cls-5" d="m630.07,59.23c1.21.07,2.42.14,3.62.21.89.89,2.38,1.71,1.07,3.13-1.31,1.42-2.95,1.03-4.44.11-1.63-.99-1.78-2.2-.25-3.45h0Z"/>
  <path class="cls-5" d="m701.77,112.78c.11,1.56-.68,2.45-1.95,2.45-1.99,0-3.34-1.17-3.8-3.13-.28-1.31.18-2.2,1.78-2.13,2.03.11,3.27,1.17,3.98,2.84v-.04Z"/>
  <path class="cls-5" d="m722.1,122.41c-.11,1.39-.78,2.24-2.13,2.17-1.85-.07-2.98-1.24-3.34-3.02-.25-1.31.36-2.45,1.71-2.45,2.06,0,3.09,1.53,3.77,3.27v.04Z"/>
  <path class="cls-5" d="m663.04,69.82c1.81.39,3.55,1.07,3.66,3.2.07,1.46-1.28,1.67-2.49,1.56-1.88-.14-3.62-.75-3.7-2.98-.04-1.42,1.35-1.6,2.49-1.81l.04.04Z"/>
  <path class="cls-5" d="m718.44,141.49c0,1.42-.64,2.45-1.88,2.49-2.1.04-3.13-1.56-3.41-3.38-.21-1.24.78-2.17,2.06-2.1,1.88.11,2.7,1.49,3.2,3.02l.04-.04Z"/>
  <path class="cls-5" d="m699.82,187.57c-.11,1.53-.85,2.77-2.31,2.7-1.63-.07-2.52-1.35-2.56-3.02-.04-1.49.57-2.66,2.2-2.56,1.71.07,2.52,1.24,2.66,2.84v.04Z"/>
  <path class="cls-5" d="m698.89,132.11c.04,1.46-.5,2.38-1.92,2.38-1.85,0-3.09-.99-3.3-2.88-.14-1.28.57-2.24,1.95-2.31,1.95-.07,2.84,1.21,3.3,2.81h-.04Z"/>
  <path class="cls-5" d="m716.3,151.65c-.07,1.28-.71,2.27-1.95,2.27-1.63,0-2.66-1.14-2.95-2.66-.28-1.49.53-2.63,2.06-2.56,1.63.11,2.38,1.46,2.88,2.91l-.04.04Z"/>
  <path class="cls-5" d="m716.94,128.38c1.85.28,2.98,1.49,3.23,3.16.28,1.63-.96,2.38-2.45,2.13-1.74-.28-2.95-1.35-3.02-3.27-.07-1.46.96-1.88,2.2-2.03h.04Z"/>
  <path class="cls-5" d="m646.23,65.38c-.82,1.71-2.1,1.99-3.66,1.49-1.39-.43-3.2-.85-2.98-2.59.28-2.2,2.31-1.88,3.87-1.63,1.49.25,2.63,1.1,2.81,2.74h-.04Z"/>
  <path class="cls-5" d="m623.99,125.96c-.36,1.71-1.56,2.45-3.09,2.45-1.67,0-2.74-.99-2.66-2.7.07-1.53,1.28-2.1,2.7-2.13,1.63-.04,2.74.71,3.09,2.38h-.04Z"/>
  <path class="cls-5" d="m617.98,133.32c1.53.14,2.77.71,2.52,2.38-.21,1.49-1.49,2.24-2.88,2.2-1.42,0-2.56-.85-2.38-2.49.18-1.6,1.35-2.1,2.74-2.1h0Z"/>
  <path class="cls-5" d="m663.4,63.71c2.56-.92,4.65-.28,6.22,1.95-.36,2.24-1.99,2.24-3.59,1.88-1.92-.46-2.95-1.74-2.63-3.84Z"/>
  <path class="cls-5" d="m700.81,106.17c-1.78-.39-3.38-1.31-3.41-3.41,0-1.31,1.21-1.95,2.49-1.63,1.67.39,3.09,1.28,3.27,3.16.14,1.46-.89,1.95-2.38,1.88h.04Z"/>
  <path class="cls-5" d="m695.09,145.47c-1.85-.25-2.95-1.1-3.02-2.81-.07-1.31.78-2.24,2.1-2.1,1.6.14,2.63,1.17,2.81,2.84.14,1.49-.82,1.92-1.88,2.06Z"/>
  <path class="cls-5" d="m760.22,171.87c.25.64.5,1.31.75,1.95-.85,1.78-1.99,2.63-3.62.85-1.17-1.24-2.2-2.98-.89-4.26,1.67-1.71,2.7.39,3.8,1.42l-.04.04Z"/>
  <path class="cls-5" d="m766.94,187.08c2.45,1.63,5.65,3.16.99,5.97-1.42-1.81-3.38-3.52-.99-5.97Z"/>
  <path class="cls-5" d="m660.69,86.95c-.25,1.49-1.24,1.95-2.45,1.74-1.31-.21-2.59-.82-2.74-2.35-.11-1.42,1.03-1.95,2.24-1.92,1.56.07,2.74.82,2.95,2.52Z"/>
  <path class="cls-5" d="m692.67,153.18c1.56.32,2.56,1.24,2.42,2.98-.07,1.07-.68,1.88-1.81,1.85-1.74,0-2.66-1.21-2.81-2.77-.11-1.28.78-2.06,2.2-2.1v.04Z"/>
  <path class="cls-5" d="m713.64,163.77c0,1.21-.5,2.1-1.67,2.13-1.78.04-2.63-1.24-2.88-2.77-.18-1.03.53-1.95,1.67-2.03,1.81-.07,2.49,1.21,2.88,2.66Z"/>
  <path class="cls-5" d="m653.48,61.72c2.1-3.09,3.34-2.88,6,.96-2.35,1.74-4.33,1.31-6-.96Z"/>
  <path class="cls-5" d="m674.37,109.33c1.42.28,2.45,1.1,2.49,2.56,0,1.1-.89,1.81-1.95,1.71-1.46-.11-2.42-1.03-2.49-2.52-.07-1.24.92-1.56,1.95-1.74Z"/>
  <path class="cls-5" d="m659.81,114.84c1.56,0,2.56.78,2.74,2.27.14,1.14-.64,1.88-1.71,1.99-1.46.14-2.63-.64-2.95-2.03-.32-1.35.68-2.03,1.92-2.24Z"/>
  <path class="cls-5" d="m609.78,140.99c-.28,1.49-1.42,2.03-2.74,2.13-1.1.07-1.74-.71-1.81-1.78-.07-1.39.85-1.95,2.1-2.1,1.28-.14,2.13.43,2.49,1.71l-.04.04Z"/>
  <path class="cls-5" d="m748.85,158.65c-1.31-.46-2.35-1.24-2.56-2.7-.18-1.17.46-1.95,1.67-1.74,1.46.28,2.17,1.39,2.27,2.81.07.92-.36,1.56-1.39,1.6v.04Z"/>
  <path class="cls-5" d="m630.88,66.55c-.14,1.31-1.1,1.6-2.06,1.63-1.17.04-2.45-.32-2.63-1.6-.21-1.49,1.17-1.78,2.27-1.81,1.14,0,2.2.43,2.42,1.78h0Z"/>
  <path class="cls-3" d="m737.41,123.97c.36.04.53.25.5.57-.21-.14-.39-.32-.5-.57Z"/>
  <path class="cls-4" d="m724.51,62.68c-3.02.46-5.05.43-2.91-3.55.85-1.63-1.88-3.7-.07-5.65-2.66-2.27,1.78-5.15-.64-7.46.46-.04.96-.11,1.42-.14,7.68,2.49,12.65,8.74,18.51,13.61,2.35,1.95,6.08,2.03,7.21,5.4-.92.28-2.24.53-1.49,1.78.96,1.63,2.17,3.45,4.62,1.88,3.09.75,4.97,2.24,6.5,5.47,1.92,4.05,6.68,6.43,7.71,11.44.21,1.07,2.38,1.35,3.84,1.49,4.09.39,5.83,2.2,3.52,6.22-2.74.04-4.48-1.88-6.61-2.95-4.19-2.1-7.68-5.4-12.61-6.57-3.09-.75-6.5-2.88-9.45-4.9-.36-.25-2.52-.71-.5-2.77,1.28-1.28.18-5.29-.5-7.89-.36-1.42-2.59-2.56-3.98-1.67-2.1,1.35,1.42,2.45.46,4.69-4.76-3.52-10.62-4.69-15.14-8.53,1.39-.46,3.23,1.53,4.19-.68.18-.43-.5-1.46-1.03-1.95-.78-.78-1.85-1.6-3.02-.99-2.17,1.1.53,2.49-.07,3.7l.04.04Z"/>
  <path class="cls-5" d="m777.88,90.5c1.67.78,3.34,1.78,3.7,3.94.14.89-.39,1.67-1.39,1.42-2.03-.53-3.34-1.99-3.91-3.94-.21-.82.53-1.42,1.63-1.42h-.04Z"/>
  <path class="cls-5" d="m785.31,94.83c1.6.46,2.77,1.49,3.23,3.16.25.85-.18,1.85-1.14,1.56-1.63-.43-3.52-.82-3.55-3.2,0-1.07.53-1.39,1.49-1.53h-.04Z"/>
  <path class="cls-5" d="m768.04,98.99c-1.46,2.03-2.77.82-4.05-.21-.89-.71-1.74-1.67-1.21-2.88.64-1.42,1.95-.57,3.02-.68.75,1.24,1.49,2.52,2.24,3.77Z"/>
  <path class="cls-5" d="m721.56,42.07c-.82-.43-1.63-.82-2.45-1.24-2.98-2.74,1.88-2.59,1.6-4.37,0-.11.82-.64.53-.25-1.6,2.17,3.73,3.8.32,5.86Z"/>
  <path class="cls-5" d="m751.16,68.58c-2.42,1.56-3.62-.28-4.62-1.88-.75-1.28.57-1.53,1.49-1.78,1.14,1.14,3.13,1.56,3.09,3.7l.04-.04Z"/>
  <path class="cls-5" d="m782.32,100.77c-.32,1.07-1.03,1.42-1.85,1.07-1.46-.68-2.81-1.67-3.09-3.38-.14-.89.57-1.56,1.49-1.24,1.71.6,2.63,2.1,3.45,3.55h0Z"/>
  <path class="cls-3" d="m749.21,99.81c-1.85-.78-4.48.82-5.69-2.2-.5-1.31-2.38-1.95.18-3.23,1.21-.6.5-2.38-.39-3.45-.71-.82-1.28-1.49.32-2.03.89-.28,1.6-1.07,2.45.18.92,1.42,2.06,2.74,3.09,4.12-1.03.14-2.42-.53-2.91,1.03-.43,1.31.5,2.13,1.31,2.95.99.99,2.27,1.24,3.59,1.39-.64.43-1.28.82-1.92,1.24h-.04Z"/>
  <path class="cls-5" d="m765.62,116.65c1.88.75,3.45,2.1,3.94,4.26.25,1.14-.6,1.88-1.74,1.67-2.31-.43-3.59-2.06-4.09-4.23-.28-1.17.46-1.78,1.88-1.74v.04Z"/>
  <path class="cls-5" d="m758.05,117.79c-1.53-1.35-3.23-2.59-3.16-4.97,2.84-1.81,4.12.36,5.15,2.27.99,1.81-.28,2.59-1.99,2.74v-.04Z"/>
  <path class="cls-5" d="m773.9,121.38c1.99.68,3.09,2.17,3.27,4.26.07.82-.6,1.56-1.6,1.31-2.13-.6-3.06-2.31-3.34-4.3-.14-.85.64-1.39,1.71-1.28h-.04Z"/>
  <path class="cls-5" d="m751.12,98.6c-1.31-.18-2.59-.39-3.59-1.39-.82-.82-1.71-1.67-1.31-2.95.5-1.56,1.88-.85,2.91-1.03l-.07-.07c.32.28.68.6.99.89.85,1.39,3.06,2.49,1.03,4.55h.04Z"/>
  <path class="cls-3" d="m750.06,108.16c-2.17-1.24-5.86.71-6.72-3.34-.18-.78-1.53-1.35-.14-2.27,1.1-.75,1.99-.89,2.81.39.99,1.56,2.42,2.63,4.16,3.23-.04.68-.07,1.31-.11,1.99Z"/>
  <path class="cls-5" d="m757.02,104.82c1.74.64,3.09,1.71,3.16,3.73,0,.92-.85,1.46-1.74,1.17-1.78-.57-3.13-1.74-3.23-3.77-.07-1.07.89-1.14,1.81-1.14h0Z"/>
  <path class="cls-5" d="m783.64,131.43c-1.42-.68-2.56-1.78-2.88-3.48-.18-.92.5-1.56,1.46-1.31,1.78.43,2.59,1.88,3.02,3.45.21.85-.46,1.46-1.6,1.35Z"/>
  <path class="cls-3" d="m750.09,94.02c-.32-.28-.68-.6-.99-.89.32,0,.64-.04.99-.07,0,.32.04.64,0,.96Z"/>
  <path class="cls-3" d="m689.33,48.07c-.71,1.71,0,3.02,1.03,4.58-6.25-1.53-12.05-3.87-17.23-7.6,1.21-.89.11-2.98,1.85-3.55,4.12,3.66,9.84,3.8,14.36,6.57Z"/>
  <path class="cls-5" d="m647.33,30.31c1.74.43,3.94.68,4.19,3.09.14,1.42-1.31,1.78-2.45,1.6-1.92-.25-4.09-.57-4.33-3.02-.14-1.42,1.28-1.6,2.59-1.67Z"/>
  <path class="cls-5" d="m647.23,39.83c-2.1.25-3.8-.68-5.37-1.88.68-3.84,3.27-2.24,5.15-1.56,2.13.75,2.17,2.17.21,3.45Z"/>
  <path class="cls-5" d="m658.17,42.85c-2.88.5-5.69.71-6.93-2.81,3.52-1.95,6.15-1.85,6.93,2.81Z"/>
  <path class="cls-5" d="m638.95,31.16c-1.81.11-3.48.11-3.52-1.92,0-1.74,1.56-1.92,2.84-1.81,1.46.11,3.2.53,3.3,2.31.11,2.1-1.81,1.21-2.63,1.46v-.04Z"/>
  <path class="cls-5" d="m660.34,36.45c.04,1.14-.64,1.56-1.46,1.56-1.88,0-3.59-.6-4.09-2.59-.28-1.1.89-1.07,1.63-1.03,1.67,0,3.13.53,3.91,2.06Z"/>
  <path class="cls-5" d="m631.56,26.72c-2.1,1.88-3.8,1.46-5.4,0-.53-.5-.57-1.17.21-1.53,2.03-.92,3.66-.25,5.22,1.53h-.04Z"/>
  <path class="cls-5" d="m683.15,41.54c.43-1.53,1.39-1.6,2.35-1.28,1.35.43,2.98.92,2.98,2.63,0,1.28-1.31,1.17-2.24,1.03-1.53-.25-2.56-1.1-3.09-2.38Z"/>
  <path class="cls-5" d="m620.97,16.59c1.31.14,2.81.32,3.13,1.74s-1.17,1.35-1.99,1.35c-1.28,0-2.91-.07-3.2-1.6-.21-1.17,1.17-1.21,2.06-1.49Z"/>
  <path class="cls-5" d="m635.57,36.21c-1.21-.36-2.74.18-2.56-1.67.14-1.56,1.39-1.53,2.49-1.49,1.31.04,2.91.43,2.88,1.85-.07,1.92-2.03.78-2.81,1.28v.04Z"/>
  <path class="cls-5" d="m709.69,50.84c1.24-1.39-2.1-2.31-.43-3.62.39-.32,1.28-.32,1.85-.18,1.14.28,2.38,1.03,2.27,2.2-.25,2.59-2.84.18-3.8,1.53l.11.07Z"/>
  <path class="cls-5" d="m709.62,50.77c.36.32.68.68,1.03.96.89.64,2.13,1.1,1.85,2.49-.18.99-1.14.92-1.92.85-1.6-.14-2.88-1.07-3.2-2.52-.32-1.53,1.28-1.46,2.31-1.71l-.11-.07h.04Z"/>
  <path class="cls-5" d="m704.68,50.17c-.21.99-.89,1.24-1.74,1.1-1.46-.28-2.95-.82-3.27-2.42-.28-1.31.92-1.53,1.92-1.24,1.39.36,2.74.89,3.09,2.56Z"/>
  <path class="cls-5" d="m771.02,168.92c0,1.63-.32,3.02-2.1,2.81-2.95-.36-3.59-2.88-4.12-5.19-.32-1.31-.07-2.95,1.85-2.63,2.81.46,3.87,2.7,4.41,5.01h-.04Z"/>
  <path class="cls-5" d="m752.01,127.31c.07,1.6-.5,2.52-1.95,2.38-2.56-.28-4.16-1.95-4.69-4.37-.36-1.53.75-2.74,2.24-2.49,2.49.43,3.8,2.31,4.41,4.48Z"/>
  <path class="cls-5" d="m761.43,141.99c0,1.31-.36,2.52-1.81,2.38-2.81-.28-4.19-2.17-4.65-4.8-.21-1.24.25-2.42,1.74-2.31,2.95.18,3.94,2.42,4.73,4.73h0Z"/>
  <path class="cls-5" d="m779.76,187.86c-.14,1.31-.11,2.91-1.74,2.49-2.56-.68-3.16-3.13-3.66-5.33-.28-1.14.21-2.63,1.74-2.24,2.52.68,3.34,2.84,3.66,5.08Z"/>
  <path class="cls-5" d="m752.01,119.14c-.11,1.49-.82,2.45-2.17,2.17-2.24-.5-3.8-1.99-4.16-4.3-.21-1.31.71-2.31,2.1-1.99,2.2.5,3.62,2.06,4.23,4.16v-.04Z"/>
  <path class="cls-5" d="m770.38,157.09c.18,1.31-.39,1.99-1.6,1.95-2.42-.07-3.34-1.81-3.73-3.84-.21-1.07.32-2.03,1.56-1.99,2.45.11,3.06,2.1,3.77,3.84v.04Z"/>
  <path class="cls-5" d="m776.96,202c-1.99-.78-2.91-2.45-3.27-4.44-.21-1.14-.11-2.81,1.31-2.63,2.24.28,2.84,2.49,3.45,4.33.43,1.24-.11,2.24-1.49,2.74h0Z"/>
  <path class="cls-5" d="m780.33,207.37c2.59,1.6,3.55,3.45,3.02,5.93-.14.68-.96.99-1.53.46-1.81-1.63-2.74-3.55-1.49-6.4Z"/>
  <path class="cls-5" d="m759.97,131.29c0,1.1.07,2.17-1.03,2.06-1.85-.18-3.3-1.24-3.8-3.06-.32-1.21.6-1.53,1.74-1.67,2.38-.32,2.31,1.71,3.09,2.7v-.04Z"/>
  <path class="cls-5" d="m679.21,60.72c-.07-.28-.04-.68-.21-.85-1.17-1.21-3.52-1.99-2.52-4.12.92-2.03,3.06-1.03,4.76-.92l-.11-.07c1.46,1.14,3.7,2.1,2.98,4.3-.75,2.35-3.34.89-4.97,1.56l.11.07-.04.04Z"/>
  <path class="cls-5" d="m679.1,60.65c.68,1.35,2.91,1.92,2.17,3.94-.5,1.39-1.81,1.21-2.91,1.03-1.88-.32-3.8-1.31-3.55-3.3.32-2.56,2.77-1.42,4.37-1.63l-.11-.07.04.04Z"/>
  <path class="cls-5" d="m663.36,47.86c.36,1.14,2.24,2.03.99,3.41-1.14,1.24-2.77.85-4.12.21-1.03-.46-2.1-1.21-1.67-2.63.36-1.21,1.49-1.07,2.45-1.1.82,0,1.63.11,2.45.18l-.07-.07h-.04Z"/>
  <path class="cls-5" d="m668.97,61.5c-1.17-.39-2.49-.78-2.7-2.27-.18-1.31.85-1.56,1.85-1.53,1.53.07,2.98.68,3.06,2.38.04.99-1.1,1.46-2.2,1.42h0Z"/>
  <path class="cls-1" d="m690.4,76.53c.6,1.14,1.21,2.27,1.81,3.38-2.74,2.17-4.26.57-5.51-1.99,1.07-.92,2.42-1.21,3.8-1.35h-.07l-.04-.04Z"/>
  <path class="cls-3" d="m689.44,65.24c1.99-.32,4.05-1.85,5.37.96.57,1.21-.04,1.24-.75,1.67-3.38,1.99-2.56-2.63-4.65-2.63h.04Z"/>
  <path class="cls-3" d="m690.4,76.53h.07c.18-2.17-.46-4.05-2.91-5.86,2.1.5,3.09-2.13,4.37-.14.99,1.53,1.6,3.23-.85,4.26-.39.18-.5,1.1-.71,1.71l.04.04Z"/>
  <path class="cls-3" d="m740.22,94.16c-2.66.92-4.23,1.1-5.22-.99-.43-.89.11-1.31.6-1.49,2.56-.89,2.31,2.03,4.58,2.52l.04-.04Z"/>
  <path class="cls-4" d="m747.96,85.52c-2.98,2.84-3.34-.11-4.41-1.35-.32-.36-.96-1.07.11-1.46,2.81-1.1,2.66,2.17,4.3,2.81Z"/>
  <path class="cls-1" d="m732.4,113.88c-.04.39-.11.82-.14,1.21-.25-.32-.5-.64-.71-.96.28-.11.57-.18.85-.28v.04Z"/>
  <path class="cls-5" d="m724.51,62.68c.6-1.24-2.06-2.59.07-3.7,1.17-.6,2.24.21,3.02.99.53.5,1.21,1.53,1.03,1.95-.96,2.2-2.81.21-4.19.68l.07.07Z"/>
</svg>